<?xml version="1.0" encoding="utf-8"?>
<!-- Generator: Adobe Illustrator 16.0.0, SVG Export Plug-In . SVG Version: 6.00 Build 0)  -->
<!DOCTYPE svg PUBLIC "-//W3C//DTD SVG 1.1//EN" "http://www.w3.org/Graphics/SVG/1.1/DTD/svg11.dtd">
<svg version="1.1" id="Layer_1" xmlns="http://www.w3.org/2000/svg" xmlns:xlink="http://www.w3.org/1999/xlink" x="0px" y="0px"
	 width="512px" height="512px" viewBox="0 0 512 512" enable-background="new 0 0 512 512" xml:space="preserve">
<g>
	<g>
		<path fill="#4C4E54" d="M181.052,501.112c-24.106,0-43.718-19.612-43.718-43.719V242.52c0-24.106,19.612-43.718,43.718-43.718
			h71.714v-78.945c0-2.837,2.308-5.145,5.145-5.145h30.577c2.837,0,5.145,2.308,5.145,5.145v78.945h71.714
			c24.105,0,43.718,19.612,43.719,43.718v214.874c0,24.106-19.612,43.719-43.719,43.719H181.052z M181.052,209.092
			c-18.433,0-33.429,14.996-33.429,33.428v214.874c0,18.434,14.996,33.43,33.429,33.43h184.294c18.434,0,33.43-14.996,33.43-33.43
			l0.002-214.874c0-18.432-14.996-33.428-33.43-33.428h-41.136v25.433c0,2.837-2.308,5.145-5.145,5.145h-91.734
			c-2.837,0-5.145-2.308-5.145-5.145v-25.433H181.052z M293.633,229.381h20.289v-20.289h-20.289V229.381z M263.055,229.381h20.289
			v-43.223h-20.289V229.381z M232.477,229.381h20.29v-20.289h-20.29V229.381z M263.055,175.869h20.289v-50.867h-20.289V175.869z"/>
	</g>
</g>
<g>
	<g>
		<path fill="#4C4E54" d="M189.11,371.154c-2.837,0-5.145-2.308-5.145-5.144V265.104c0-2.837,2.308-5.145,5.145-5.145h168.179
			c2.837,0,5.145,2.308,5.145,5.145v100.907c0,2.836-2.308,5.144-5.145,5.144H189.11z M194.255,360.866h157.89v-90.619h-157.89
			V360.866z"/>
	</g>
</g>
<g>
	<g>
		<path fill="#E7364D" d="M258.747,313.977c-2.664-2.36-6.223-3.543-10.675-3.543h-4.807l0.811-11.353c0,0,13.939,0,13.992,0
			c1.875,0,2.427-2.466,2.427-3.922c0-1.466-0.562-3.921-2.435-3.921h-19.228c-0.916,0-1.436,0.938-1.561,2.82
			c0,0-1.686,19.719-1.686,19.901c0,2.147,1.029,3.489,3.246,3.489c0,0,9.225,0,9.239,0c4.522,0,6.554,3.599,6.554,7.706v1.307
			c0,5.093-2.207,7.638-6.617,7.638c-3.167,0-6.429-1.723-6.429-5.229c0-2.526-1.747-3.438-4.058-3.438
			c-2.642,0-4.058,1.389-4.058,4.059c0,3.611,1.817,7.068,4.606,9.328c2.847,2.308,6.527,3.125,10.126,3.125
			c4.06,0,8.319-1.301,11.142-4.354c2.658-2.875,3.366-7.064,3.401-10.84c0.001-0.096,0.002-0.191,0.002-0.287v-1.308
			C262.742,320.064,261.41,316.339,258.747,313.977z"/>
	</g>
</g>
<g>
	<g>
		<path fill="#E7364D" d="M269.949,332.587c-2.49,0-4.088,2.373-4.088,4.679c0,2.244,1.604,4.678,4.088,4.68
			c2.373,0,4.027-2.506,4.027-4.678C273.979,335.104,272.38,332.588,269.949,332.587z"/>
	</g>
</g>
<g>
	<g>
		<path fill="#4C4E54" d="M273.199,470.033c-13.099,0-23.755-10.657-23.755-23.756s10.657-23.756,23.755-23.756
			s23.756,10.657,23.756,23.756S286.298,470.033,273.199,470.033z M273.199,431.81c-7.977,0-14.467,6.49-14.467,14.468
			c0,7.977,6.49,14.467,14.467,14.467s14.467-6.49,14.467-14.467C287.666,438.3,281.176,431.81,273.199,431.81z"/>
	</g>
</g>
<g>
	<g>
		<path fill="#4C4E54" d="M323,470.014c-2.25,0-4.756-1.899-4.756-4.625v-38.222c0-2.768,2.455-4.626,4.748-4.626
			c0.529,0,1.048,0.095,1.542,0.281c0.035,0.014,31.626,11.98,50.453,19.112c2.134,0.809,2.895,2.775,2.895,4.346
			c0,1.568-0.761,3.532-2.895,4.341c-0.05,0.019-31.634,11.982-50.454,19.111C324.04,469.919,323.524,470.014,323,470.014
			L323,470.014z M327.533,458.663l32.698-12.386l-32.698-12.384V458.663z"/>
	</g>
</g>
<g>
	<g>
		<path fill="#4C4E54" d="M223.412,470.014c-0.531,0-1.051-0.095-1.547-0.283c-0.335-0.126-50.454-19.111-50.454-19.111
			c-2.133-0.808-2.893-2.775-2.893-4.347c0-1.568,0.76-3.531,2.892-4.339c0.353-0.134,50.454-19.112,50.454-19.112
			c0.436-0.165,0.903-0.249,1.385-0.249c0.949,0,1.943,0.326,2.8,0.918c1.318,0.911,2.104,2.285,2.104,3.676v38.222
			c0,1.243-0.508,2.408-1.431,3.281C225.82,469.523,224.613,470.014,223.412,470.014L223.412,470.014z M186.168,446.277
			l32.698,12.386v-24.771L186.168,446.277z"/>
	</g>
</g>
<g>
	<g>
		<path fill="#E7364D" d="M303.747,314.977c-2.664-2.36-6.224-3.543-10.675-3.543h-4.807l0.811-11.353c0,0,13.939,0,13.992,0
			c1.875,0,2.427-2.466,2.427-3.922c0-1.466-0.562-3.921-2.435-3.921h-19.228c-0.916,0-1.437,0.938-1.562,2.82
			c0,0-1.686,19.719-1.686,19.901c0,2.147,1.028,3.489,3.246,3.489c0,0,9.225,0,9.238,0c4.523,0,6.555,3.599,6.555,7.706v1.307
			c0,5.093-2.207,7.638-6.617,7.638c-3.166,0-6.429-1.723-6.429-5.229c0-2.526-1.747-3.438-4.058-3.438
			c-2.644,0-4.06,1.389-4.06,4.059c0,3.611,1.815,7.068,4.604,9.328c2.849,2.308,6.527,3.125,10.127,3.125
			c4.061,0,8.318-1.301,11.143-4.354c2.658-2.875,3.366-7.064,3.401-10.84c0.001-0.096,0.002-0.191,0.002-0.287v-1.308
			C307.742,321.064,306.41,317.339,303.747,314.977z"/>
	</g>
</g>
<path fill="#E7364D" d="M274.455,98.489c-1.432,0-2.93-0.101-4.455-0.298c-12.253-1.76-20.187-8.721-23.542-20.684l-0.224-0.681
	c-1.25-4.666-1.989-11.416,1.505-17.243l4.161-6.864c4.526-7.36,9.13-14.498,14.005-22.055c2.215-3.432,4.484-6.951,6.76-10.514
	c0.313,0.439,0.618,0.87,0.92,1.294c1.371,1.929,2.646,3.723,3.922,5.539c1.931,2.791,3.886,5.586,5.84,8.381
	c4.389,6.274,8.926,12.762,13.208,19.256c5.273,8.006,6.52,16.16,3.701,24.235c-0.761,2.155-1.836,4.368-3.193,6.567
	c-3.685,5.778-8.33,9.69-13.783,11.59C280.583,97.998,277.627,98.489,274.455,98.489L274.455,98.489z"/>
<path fill="#E7364D" d="M303.012,401.733c-0.213,0-0.447-0.02-0.738-0.063l-0.362-0.053l-0.363,0.053
	c-0.29,0.043-0.523,0.063-0.735,0.063h-123.8c-2.836,0-5.144-2.308-5.144-5.145s2.308-5.146,5.144-5.146h123.8
	c0.211,0,0.447,0.02,0.742,0.063l0.356,0.051l0.355-0.051c0.297-0.043,0.533-0.063,0.745-0.063h68.801
	c2.837,0,5.146,2.309,5.146,5.146s-2.309,5.145-5.146,5.145H303.012z"/>
</svg>
