<?xml version="1.0" encoding="utf-8"?>
<!-- Generator: Adobe Illustrator 16.0.0, SVG Export Plug-In . SVG Version: 6.00 Build 0)  -->
<!DOCTYPE svg PUBLIC "-//W3C//DTD SVG 1.1//EN" "http://www.w3.org/Graphics/SVG/1.1/DTD/svg11.dtd">
<svg version="1.1" id="Layer_1" xmlns="http://www.w3.org/2000/svg" xmlns:xlink="http://www.w3.org/1999/xlink" x="0px" y="0px"
	 width="512px" height="512px" viewBox="0 0 512 512" enable-background="new 0 0 512 512" xml:space="preserve">
<rect fill="none" width="512" height="512"/>
<path display="none" fill="#4C4E54" d="M383.32,405.648c-13.252,6.84-26.396,13.653-39.267,20.325l-79.733,41.128
	c-11.168-24.025-30.616-55.352-70.632-60.636l-4.292-0.532c-18.812-2.325-36.58-4.525-53.536-10.052
	c-1.836-0.58-3.832-1.397-6.008-2.3c-3.58-1.548-6.968-3.46-10.052-5.656c-5.592-4.092-8.228-12.808-6.156-20.193l0.256-0.807
	c0.368-1.158,0.78-2.46,1.16-3.906c2.828-10.779-0.704-20.916-9.464-27.416c1.96-5.434,1.484-10.813-1.416-16.023
	c1.864-3.668,5.256-11.32,3.028-20.236c-2.332-9.176-9.196-15.104-20.392-17.604l-3.68-0.854c-3.888-1.065-6.436-2.252-7.484-3.411
	c-0.484-0.619-0.812-1.261-1.04-2.005c-0.344-1.29-0.232-1.489-0.104-1.724c7.528-13.528,15.092-27.316,22.44-40.716l1.86-3.372
	c3.316-6.012,6.636-12.04,10.032-18.144l0.656-1.2c4.14-6.792,6.688-13.532,7.804-20.6l0.408-2.592l-0.4-2.592
	c-0.76-4.928-1.212-10.004-1.34-15.072c-0.48-28.312,8.804-53.912,28.388-78.272c19.724-24.468,42.28-38.204,75.42-45.908
	c40.701-9.416,78.361-7.504,112.312,5.704c56.141,21.92,90.612,61.92,102.464,118.888c6.391,30.744,2.603,61.48-11.264,91.354
	c-4.652,9.987-9.704,20.129-14.636,30.018c-4.2,8.42-8.544,17.132-12.664,25.814c-9.396,19.717-14.404,37.26-15.756,55.195
	C379.332,384.6,381.328,396.44,383.32,405.648z M467.544,163.004C453.228,94.16,411.776,45.912,344.34,19.588
	c-40.268-15.684-84.848-18.104-132.18-7.132c-40.524,9.416-69.528,27.184-94.048,57.6c-24.396,30.348-36.448,64-35.824,100.152
	c0.132,5.432,0.564,10.928,1.28,16.336c-0.552,1.956-1.476,3.984-2.796,6.16c-0.552,0.888-1.096,1.848-1.544,2.732
	c-3.972,7.156-7.876,14.236-11.848,21.444c-7.288,13.292-14.828,27.044-22.324,40.509c-4.596,8.295-5.572,17.428-2.808,27.463
	c1.512,5.116,3.96,9.789,7.528,14.201c4.96,5.863,11.644,10.168,20.384,13.107c-2.792,7.244-2.404,13.82,1.168,19.566
	c-0.108,0.58-0.208,1.191-0.296,1.832c-1.392,10.399,2.044,19.315,9.952,25.877c-5.456,20.809,2.264,43.578,19.152,55.853
	c5.12,3.66,10.664,6.788,16.872,9.448c2.576,1.06,5.5,2.26,8.648,3.248c19.876,6.476,40.088,8.976,59.628,11.392l4.104,0.512
	c26.616,3.521,38.464,26.86,50.164,54.708c2.988,7.112,9.9,11.7,17.608,11.7c3.012,0,6.023-0.728,8.695-2.096
	c8.685-4.448,40.185-20.692,66.393-34.204l18.76-9.672c18.78-9.748,38.208-19.824,57.752-29.895l2.064-1.06l2.136-2.012
	c3.732-3.723,7.668-10.303,5.208-20.484c-2.996-12.588-5.06-22.265-4.328-32.128c1.024-13.646,5.021-27.376,12.576-43.225
	c3.924-8.266,8.108-16.66,12.164-24.793l0.252-0.513c4.972-9.968,10.112-20.264,15.016-30.804
	C470.836,238.824,475.44,201,467.544,163.004z"/>
<path fill="none" stroke="#4C4E54" stroke-width="14" stroke-miterlimit="10" d="M107.421,188.159
	c-0.909,5.761-3.024,11.307-6.464,16.951l-0.123,0.201l-0.769,1.406c-2.949,5.299-5.874,10.604-8.789,15.891l-3.085,5.593
	c-6.881,12.55-14.667,26.749-22.422,40.684c-1.948,3.555-1.46,6.758-0.821,9.159l0.047,0.179l0.055,0.178
	c0.593,1.937,1.483,3.647,2.722,5.231l0.22,0.282l0.239,0.266c2.484,2.748,6.265,4.707,12.259,6.352l0.192,0.053l3.874,0.898
	c9.721,2.17,12.027,6.656,12.959,10.324c0.99,3.963,0.257,8.309-2.251,13.243l-2.41,4.744l2.587,4.647
	c1.49,2.678,1.72,5.072,0.748,7.769l-2.523,6.994l5.971,4.43c5.49,4.074,7.532,10.058,5.75,16.849
	c-0.319,1.218-0.69,2.387-1.018,3.418l-0.308,0.968l-0.046,0.164c-3.201,11.411,0.953,24.435,9.879,30.966l0.104,0.075
	c3.678,2.62,7.677,4.87,11.885,6.688l0.141,0.061c2.542,1.053,4.658,1.913,6.822,2.597c17.802,5.802,36.026,8.056,55.322,10.441
	l4.289,0.53c35.576,4.698,52.88,33.6,62.795,54.928l4.393,9.448l88.993-45.903c12.884-6.68,26.021-13.49,39.27-20.328l6.807-3.513
	l-1.62-7.487c-1.643-7.594-3.729-19.021-2.888-30.553c1.254-16.644,5.96-33.053,14.81-51.621
	c4.127-8.698,8.428-17.317,12.585-25.653c4.665-9.353,9.952-19.953,14.753-30.258c14.795-31.878,18.826-64.716,11.989-97.613
	c-12.585-60.493-49.129-102.941-108.618-126.168c-20.917-8.138-43.388-12.261-66.797-12.261c-16.53,0-33.825,2.062-51.406,6.129
	c-35.498,8.252-59.705,23.018-80.951,49.375c-21.116,26.265-31.123,53.973-30.602,84.717c0.141,5.577,0.63,11.076,1.456,16.428
	l0.162,1.051L107.421,188.159z"/>
<rect fill="none" width="512" height="512"/>
<path fill="#E7364D" d="M392.464,164.408l-1.056-3.476c-0.524-1.704-0.88-3.468-1.12-5.54c-0.2-1.76-0.316-3.46-0.448-5.652
	c-0.229-4.008-0.472-8.152-1.696-12.616c-3.105-11.332-10.712-19.944-22.596-25.592l-0.832-0.736
	c-5.8-9.092-14.644-14.792-26.3-16.948c-2.184-0.404-4.344-0.564-6.44-0.704l-0.985-0.172c-9.103-3.768-18.767-6.276-29.002-8.936
	c-3.176-0.824-6.348-1.652-9.516-2.516c-13.257-3.612-23.66-4.812-33.828-3.936c-10.781,0.92-19.65,3.776-27.11,8.732
	c-2.608,1.728-5.616,2.96-8.932,3.668c-1.716,0.356-3.388,0.64-5.256,0.944c-1.324,0.216-2.576,0.424-3.752,0.696
	c-17.456,4.036-28.284,12.572-34.08,26.864c-1.628,4.032-4.472,6.408-7.256,8.732c-1.028,0.86-1.996,1.668-2.892,2.532
	c-9.432,9.08-13.544,24.64-9.772,37c1.624,5.332,4.444,8.132,8.02,11.688c0.884,0.876,1.788,1.776,2.724,2.756
	c1.724,1.808,3.092,4.028,4.304,5.988c1.844,2.984,3.584,5.8,6.356,7.384c3.948,2.268,10.372,1.54,17.16,0.272
	c3.34-0.624,7.432-1.38,11.132-1.32c2.528,0.068,8.1,3.828,11.036,6.408c2.144,2.076,3.332,4.644,4.48,7.124
	c0.812,1.76,1.652,3.58,2.812,5.068c3.252,4.164,9.6,6.904,17.876,7.708c4.956,0.504,9.752,0.224,14.888-1.032
	c0.341-0.12,1.364-0.516,3.302-1.364c1.875-0.824,3.979-1.24,6.256-1.24c12.979,0,28.049,13.088,28.287,24.572l0.209,6.988
	c0.207,5.92,0.424,39.7,0.049,49.889l-0.148,4.098h49.376l0.688-39.723c0.106-0.879,0.185-1.72,0.265-2.623
	c0.116-1.297,0.224-2.508,0.464-3.646c2.724-12.784,7.088-22.388,11.984-26.376c0.724-0.592,1.796-1.188,2.938-1.62
	c14.532-5.508,22.696-16.328,23-30.464l0.311-1.032c1.786-2.816,3.176-5.972,4.172-9.564c0.313-0.588,0.614-1.2,0.888-1.828
	C395.752,177.056,394.26,170.46,392.464,164.408z"/>
</svg>
