<?xml version="1.0" encoding="utf-8"?>
<!-- Generator: Adobe Illustrator 16.0.0, SVG Export Plug-In . SVG Version: 6.00 Build 0)  -->
<!DOCTYPE svg PUBLIC "-//W3C//DTD SVG 1.1//EN" "http://www.w3.org/Graphics/SVG/1.1/DTD/svg11.dtd">
<svg version="1.1" id="Layer_1" xmlns="http://www.w3.org/2000/svg" xmlns:xlink="http://www.w3.org/1999/xlink" x="0px" y="0px"
	 width="512px" height="512px" viewBox="0 0 512 512" enable-background="new 0 0 512 512" xml:space="preserve">
<rect x="11.662" y="11.662" fill="none" width="488.676" height="488.676"/>
<path fill="none" stroke="#4D4E54" stroke-width="14" stroke-miterlimit="10" d="M23.413,79.652
	c1.527-19.405,2.978-37.822,4.493-57.075c20.22,1.256,41.347,1.87,62.318,4.001c72.209,7.33,144.396,14.946,216.521,23.075
	c13.121,1.477,26.258,4.852,38.788,9.108c32.81,11.141,53.425,46.581,47.982,80.78c-3.811,23.965-31.348,48.253-56.93,41.428
	c-28.717-7.679-41.757-35.899-61.399-54.213c-21.023-19.604-50.877-23.659-78.086-28.114c-56.093-9.186-110.1-14.148-170.222-19.459
	C25.581,79.068,24.28,79.53,23.413,79.652z"/>
<rect x="11.662" y="11.662" fill="none" width="488.676" height="488.676"/>
<path fill="#E7364D" d="M449.535,132.751c-0.021,7.96-1.138,15.966-3.131,23.72c-1.969,7.662-9.283,11.931-16.832,10.739
	c-6.936-1.092-10.648-6.36-9.841-15.294c1.647-18.101-3.043-34.586-11.579-50.327c-5.315-9.803-2.241-15.958,8.765-17.589
	c9.369-1.39,16.975,1.955,22.092,10.071C446.435,105.831,449.573,119.22,449.535,132.751z"/>
<rect x="11.662" y="11.662" fill="none" width="488.676" height="488.676"/>
<path fill="none" stroke="#4C4E54" stroke-width="14" stroke-miterlimit="10" d="M490.291,488.156l-14.113-222.119
	c-1.637-25.728-4.832-52.219-23.973-68.65c-9.968-8.537-23.77-13.24-38.856-13.24c-3.212,0-6.465,0.214-9.671,0.638
	c-19.314,2.542-37.178,12.075-52.111,21.066c-5.865,3.539-10.739,7.99-14.484,13.24c-6.299,8.848-6.051,16.6-4.737,21.543
	c2.054,7.712,8.123,14.233,17.096,18.363c15.334,7.063,30.042,14.271,41.463,24.763c4.423,4.063,8.133,8.674,11.18,12.652
	c5.056,6.597,6.756,12.79,9.11,21.356l0.198,0.722c1.979,7.207,3.745,14.832,5.239,22.662c2.794,14.569,4.748,30.153,5.978,47.639
	c0.656,9.364,2.567,86.37,1.606,92.489c0.265-1.66,0.104,6.82,0.104,6.82L490.291,488.156z"/>
<rect x="11.662" y="11.662" fill="none" width="488.676" height="488.676"/>
<path fill="#E7364D" d="M320.804,458.361c0,0-0.603-2.271-1.651-6.239c-0.258-1.011-0.561-2.066-0.859-3.322
	c-0.29-1.275-0.606-2.65-0.94-4.124c-0.338-1.477-0.696-3.048-1.072-4.707c-0.328-1.641-0.676-3.367-1.035-5.165
	c-0.76-3.596-1.417-7.528-2.1-11.701c-0.707-4.173-1.248-8.61-1.833-13.213c-0.484-4.612-1.01-9.398-1.294-14.285
	c-0.405-4.886-0.502-9.873-0.672-14.878c-0.042-5-0.084-10.025,0.118-14.97c0.076-4.959,0.497-9.819,0.782-14.557
	c0.474-4.703,0.814-9.301,1.436-13.606c0.283-2.167,0.562-4.269,0.825-6.308c0.332-2.027,0.652-3.985,0.962-5.863
	c0.581-3.78,1.278-7.205,1.894-10.247c0.304-1.523,0.592-2.951,0.855-4.273c0.306-1.309,0.584-2.513,0.836-3.598
	c1.023-4.353,1.609-6.841,1.609-6.841c3.341-14.22,17.577-23.045,31.8-19.704c14.222,3.34,23.047,17.577,19.706,31.8
	c-0.404,1.73-0.975,3.384-1.687,4.94l-0.229,0.49c0,0-0.901,1.942-2.477,5.346c-0.397,0.853-0.833,1.8-1.31,2.825
	c-0.439,1.044-0.917,2.168-1.422,3.371c-1.023,2.407-2.205,5.131-3.32,8.154c-0.577,1.509-1.188,3.082-1.811,4.713
	c-0.571,1.649-1.163,3.353-1.767,5.105c-1.278,3.497-2.326,7.26-3.56,11.152c-1.049,3.92-2.278,7.973-3.198,12.158
	c-1.045,4.169-1.882,8.457-2.741,12.767c-0.732,4.317-1.55,8.659-2.065,12.969c-0.631,4.307-1.024,8.575-1.442,12.726
	c-0.313,4.15-0.648,8.185-0.78,12.021c-0.153,3.838-0.297,7.485-0.271,10.854c-0.009,1.689-0.021,3.302-0.026,4.841
	c0.03,1.512,0.062,2.943,0.091,4.291c0.027,1.352,0.056,2.619,0.076,3.787c0.035,1.188,0.122,2.362,0.175,3.371
	c0.227,4.104,0.358,6.448,0.358,6.448c0.342,6.158-4.371,11.433-10.529,11.774C326.839,466.967,322.128,463.386,320.804,458.361z"/>
<path fill="none" stroke="#4C4E54" stroke-width="14" stroke-miterlimit="10" d="M422.608,388.791
	c0.656,9.364,1.606,92.489,1.606,92.489l0.104,6.82"/>
</svg>
