<?xml version="1.0" encoding="utf-8"?>
<!-- Generator: Adobe Illustrator 16.0.0, SVG Export Plug-In . SVG Version: 6.00 Build 0)  -->
<!DOCTYPE svg PUBLIC "-//W3C//DTD SVG 1.1//EN" "http://www.w3.org/Graphics/SVG/1.1/DTD/svg11.dtd">
<svg version="1.1" id="Layer_1" xmlns="http://www.w3.org/2000/svg" xmlns:xlink="http://www.w3.org/1999/xlink" x="0px" y="0px"
	 width="512px" height="512px" viewBox="0 0 512 512" enable-background="new 0 0 512 512" xml:space="preserve">
<g id="Layer_1_1_" display="none">
	<g display="inline">
		<g>
			<g>
				<defs>
					<rect id="SVGID_1_" width="512" height="512"/>
				</defs>
				<clipPath id="SVGID_2_">
					<use xlink:href="#SVGID_1_"  overflow="visible"/>
				</clipPath>
				<polygon clip-path="url(#SVGID_2_)" fill="#E7364D" points="204.724,360.236 133.96,360.236 133.96,289.809 81.352,289.809 
					81.352,360.568 11.644,360.568 11.644,412.756 82.2,412.756 82.2,482.672 134.26,482.672 134.26,411.872 204.724,411.872 				
					"/>
			</g>
		</g>
	</g>
	<g display="inline">
		<g>
			<g>
				<defs>
					<rect id="SVGID_3_" width="512" height="512"/>
				</defs>
				<clipPath id="SVGID_4_">
					<use xlink:href="#SVGID_3_"  overflow="visible"/>
				</clipPath>
				<path clip-path="url(#SVGID_4_)" fill="#4C4E54" d="M494.188,203.932c-5.212,19.828-14.728,36.708-32.516,48.152
					c-10.536,6.796-21.864,11.668-33.536,15.068c-7.476,2.149-15.18,3.623-23.109,4.644c-14.5,1.588-29.232,1.813-43.62-0.68
					c-0.683-0.112-1.248-0.229-1.924-0.341c-0.112,0.111-0.112,0.341-0.229,0.453c-2.944,7.021-5.436,14.047-6.912,21.752
					c-1.132,6.115-1.928,12.233-2.605,18.352C348.268,324.508,370.456,481.72,373,481.72h-3.172
					c-9.516-0.68-18.92-1.357-28.096-2.268c-0.343-1.7-0.568-3.512-0.683-5.212c-0.901-8.492-4.456-44.132-5.476-52.66
					c-5.732-47.78-14.098-100.771-30.594-146.168c-0.902-2.492-1.698-4.532-2.49-6.004c-5.213-10.424-12.124-19.828-19.828-28.664
					c-7.594-8.724-15.748-16.768-23-25.944c-8.496-10.648-19.828-20.052-29.796-29.456c-20.052-19.032-41.012-37.16-62.88-54.044
					c-21.524-16.768-43.96-32.288-67.072-46.564c29.796,27.304,63.784,57.1,96.188,88.484
					c29.232,28.212,78.289,90.524,87.692,102.532c0.567,0.792,0.112,1.928-0.792,2.152c-2.27,0.34-4.531,1.132-6.23,1.02
					c-2.039,0.229-4.08,0.452-6.115,0.68h-0.682c-8.61,0.793-16.997,0.683-26.057,0.568c-14.388-0.229-28.776-0.111-43.052-1.132
					c-0.228,0-0.34,0-0.452-0.112c-43.504-3.287-80.78-19.938-109.556-53.588c-23.34-27.416-40.448-57.328-52.908-89.164
					c-12.008-30.588-19.6-62.992-24.36-96.528c-0.796-6,3.056-10.076,9.288-10.304c3.624-0.112,7.252,0.34,10.988,0.68
					c31.044,2.268,61.86,5.44,92.336,12.348c5.1,1.132,10.084,2.38,15.18,3.852c34.78,9.516,70.356,18.128,102.304,35.236
					c21.751,11.668,41.462,28.436,54.498,49.512c8.834,14.388,13.366,30.588,13.597,47.472c0.228,14.048-0.229,34.556-7.933,46.904
					c0,2.152,0.34,3.852,1.242,4.872c13.62,15.348,19.824,34.812,30.468,52.144c1.599-1.624,1.916-3.328,2.729-5.464
					c0.566-1.473,1.132-2.944,1.928-4.305c0.792-2.041,1.7-4.08,2.492-5.894c2.04-4.306,4.76-9.063,5.324-13.936
					c0.565-5.44-1.813-10.992-2.492-16.428c-4.872-36.936-0.68-72.848,12.008-107.856c8.272-22.66,22.884-39.54,43.164-52.004
					c19.94-12.348,41.92-20.052,64.24-26.964c6.004-1.588,12.008-3.288,18.128-4.76c5.1-1.248,8.724,1.472,9.176,6.572
					c2.38,25.38,5.101,50.644,7.024,75.908C501.328,153.064,500.872,178.668,494.188,203.932z"/>
			</g>
		</g>
	</g>
</g>
<g id="Layer_2" display="none">
	<g display="inline">
		<path fill="#E7364D" d="M131.408,481.063c-1.949,0-3.898-0.744-5.387-2.232l-94.305-94.297c-2.977-2.979-2.977-7.799,0-10.777
			c2.978-2.975,7.799-2.975,10.776,0l94.305,94.298c2.975,2.979,2.975,7.8,0,10.776
			C135.307,480.317,133.358,481.063,131.408,481.063z"/>
	</g>
	<g display="inline">
		<path fill="#E7364D" d="M159.321,439.843c-1.949,0-3.899-0.743-5.387-2.23l-79.902-79.905c-2.977-2.979-2.977-7.799,0-10.775
			c2.977-2.977,7.798-2.977,10.775,0l79.902,79.905c2.977,2.978,2.977,7.799,0,10.775
			C163.221,439.1,161.271,439.843,159.321,439.843z"/>
	</g>
	<g display="inline">
		<path fill="#E7364D" d="M242.029,353.293c-1.95,0-3.899-0.744-5.389-2.232l-77.981-77.979c-2.977-2.977-2.977-7.798,0-10.773
			c2.977-2.979,7.798-2.979,10.776,0l77.981,77.978c2.977,2.978,2.977,7.799,0,10.774
			C245.929,352.549,243.978,353.293,242.029,353.293z"/>
	</g>
	<g display="inline">
		<path fill="#E7364D" d="M285.171,327.307c-1.948,0-3.899-0.744-5.388-2.231l-92.854-92.86c-2.978-2.977-2.978-7.799,0-10.774
			c2.977-2.978,7.799-2.978,10.775,0l92.854,92.861c2.977,2.976,2.977,7.798,0,10.773
			C289.07,326.563,287.12,327.307,285.171,327.307z"/>
	</g>
	<g display="inline">
		<path fill="#E7364D" d="M319.713,292.766c-1.948,0-3.898-0.744-5.388-2.233l-94.304-94.304c-2.978-2.977-2.978-7.799,0-10.774
			c2.976-2.978,7.798-2.978,10.774,0l94.304,94.304c2.978,2.977,2.978,7.801,0,10.774
			C323.612,292.021,321.664,292.766,319.713,292.766z"/>
	</g>
	<g display="inline">
		<path fill="#E7364D" d="M347.626,251.54c-1.95,0-3.899-0.745-5.388-2.233l-79.906-79.897c-2.977-2.978-2.977-7.799,0-10.775
			c2.979-2.977,7.798-2.977,10.775,0l79.905,79.898c2.978,2.976,2.978,7.799,0,10.774
			C351.525,250.795,349.575,251.54,347.626,251.54z"/>
	</g>
	<g display="inline">
		<path fill="#E7364D" d="M429.028,166.283c-1.95,0-3.9-0.744-5.39-2.231L345.662,86.08c-2.979-2.978-2.979-7.799,0-10.776
			c2.977-2.976,7.798-2.976,10.774,0l77.977,77.972c2.979,2.978,2.979,7.798,0,10.776
			C432.927,165.539,430.977,166.283,429.028,166.283z"/>
	</g>
	<g display="inline">
		<path fill="#E7364D" d="M472.174,140.297c-1.952,0-3.899-0.743-5.389-2.231l-92.854-92.854c-2.977-2.976-2.977-7.799,0-10.774
			c2.978-2.977,7.8-2.977,10.775,0l92.853,92.854c2.977,2.978,2.977,7.799,0,10.775
			C476.072,139.554,474.122,140.297,472.174,140.297z"/>
	</g>
	<g display="inline">
		<path fill="#4C4E54" d="M122.952,496.934l-10.776-10.773c24.143-24.141,42.027-51.487,50.349-77.004
			c7.646-23.418,6.064-42.816-4.338-53.215l10.775-10.774c14.82,14.815,17.681,39.216,8.051,68.722
			C167.957,441.637,148.758,471.127,122.952,496.934z"/>
	</g>
	<g display="inline">
		<path fill="#4C4E54" d="M158.187,355.941c-30.329-30.338-10.63-99.387,43.911-153.925c25.6-25.599,55.524-44.433,84.248-53.035
			c30.005-8.981,54.726-5.707,69.622,9.183l-10.774,10.776c-10.598-10.604-30.449-12.554-54.473-5.358
			c-26.355,7.887-54,25.367-77.847,49.21c-51.942,51.935-64.831,111.45-43.912,132.374L158.187,355.941z"/>
	</g>
	<g display="inline">
		<path fill="#4C4E54" d="M382.235,182.58c-14.972,0-27.802-4.398-37.043-13.64l10.774-10.776
			c22.816,22.83,82.442,1.764,130.188-45.979l10.774,10.774C458.778,161.118,415.299,182.58,382.235,182.58z"/>
	</g>
	<g display="inline">
		<path fill="#4C4E54" d="M25.845,399.816L15.07,389.041c55.447-55.461,122.11-75.672,151.764-46.011l-10.775,10.776
			C133.239,330.997,73.604,352.059,25.845,399.816z"/>
	</g>
	<g display="inline">
		<path fill="#4C4E54" d="M194.735,367.945c-16.032,0-29.304-4.764-38.677-14.139l10.775-10.777
			c10.589,10.576,30.443,12.519,54.479,5.338c26.379-7.903,54.043-25.393,77.892-49.248c23.843-23.836,41.313-51.479,49.204-77.852
			c7.187-24.021,5.238-43.875-5.343-54.457l10.772-10.773c14.893,14.882,18.145,39.603,9.168,69.599
			c-8.603,28.745-27.429,58.667-53.027,84.258c-25.598,25.614-55.542,44.455-84.295,53.064
			C214.566,366.293,204.17,367.945,194.735,367.945z"/>
	</g>
	<g display="inline">
		<path fill="#4C4E54" d="M343.065,166.811c-29.646-29.661-9.452-96.313,45.973-151.744l10.772,10.775
			c-47.735,47.743-68.787,107.365-45.973,130.195L343.065,166.811z"/>
	</g>
</g>
<path fill="#E7364D" d="M144.891,116.918V48.044c0,0,0-39.028,42.405-39.028h69.3V9h69.295c42.406,0,42.406,39.033,42.406,39.033
	v68.883c-43.097,17.712-111.701,17.712-111.701,17.712S187.986,134.628,144.891,116.918z"/>
<path fill="#E7364D" d="M155.02,140.556l24.194,4.938l-1.054,8.888c-29.451,25.681,2.105,55.312,2.105,55.312
	c25.772-10.864,75.734-12.84,75.734-12.84s49.962,1.976,75.737,12.84c0,0,31.558-29.63,2.102-55.312l-1.054-8.888l24.194-4.938
	c0,0,33.659,35.555-9.467,83.953c0,0-25.771,72.101-91.513,73.091c-65.742-0.99-91.513-73.091-91.513-73.091
	C121.362,176.111,155.02,140.556,155.02,140.556z"/>
<g id="Layer_4">
</g>
<path fill="none" stroke="#4C4E54" stroke-width="14" stroke-miterlimit="10" d="M422.912,335.082
	c-49.46-19.835-78.841-28.548-78.841-28.548L256.002,419.52l-88.071-112.984c0,0-29.382,8.713-78.84,28.548
	c-49.46,19.839-51.419,57.101-51.419,57.101V502.5h217.765h1.125h217.767V392.182C474.328,392.182,472.371,354.921,422.912,335.082z
	"/>
<polygon fill="#E7364D" points="392.951,412.699 370.222,412.699 370.222,435.428 356.784,435.428 356.784,412.699 334.055,412.699 
	334.055,399.256 356.784,399.256 356.784,376.531 370.222,376.531 370.222,399.256 392.951,399.256 "/>
</svg>
