<?xml version="1.0" encoding="utf-8"?>
<!-- Generator: Adobe Illustrator 16.0.0, SVG Export Plug-In . SVG Version: 6.00 Build 0)  -->
<!DOCTYPE svg PUBLIC "-//W3C//DTD SVG 1.1//EN" "http://www.w3.org/Graphics/SVG/1.1/DTD/svg11.dtd">
<svg version="1.1" id="Layer_1" xmlns="http://www.w3.org/2000/svg" xmlns:xlink="http://www.w3.org/1999/xlink" x="0px" y="0px"
	 width="512px" height="512px" viewBox="0 0 512 512" enable-background="new 0 0 512 512" xml:space="preserve">
<path display="none" fill="#E7364D" d="M119.019,150.379c-16.664,7.17-33.869,9.71-48.996,20.746
	c-5.506,4.016-12.821,15.633-1,17.715c4.227,0.745,7.854-2.725,10.996-4.977c5.877-4.209,12.287-7.621,19-10.28
	c16.243-6.435,35.402-11.524,53-8.903c4.184,0.623,7.967,2.549,12,3.699c-4.46,2.184-9.4,2.952-14,4.861
	c-10.961,4.553-21.415,11.391-29.41,20.229c-3.629,4.012-10.378,10.921-7.396,16.866c6.828,13.608,19.572-6.375,24.822-10.952
	c13.68-11.932,38.553-23.119,53.455-6.703c2.995,3.299,5.053,7.602,6.706,11.699c6.675,16.537,5.823,33.531,5.823,51v67v28
	c0,3.436,0.93,8.667-1.027,11.697c-1.498,2.318-4.521,2.765-6.973,3.453c-5.053,1.422-10.214,2.99-15,5.162
	c-16.456,7.472-28.236,21.168-28.96,39.688c-1.22,31.274,22.763,55.53,49.96,66.547c6.438,2.608,13.257,4.678,20,6.323
	c3.441,0.84,7.855,1.046,10.852,3.067c6.857,4.63-1.672,26.791,12.145,24.521c5.65-0.929,6.934-6.682,7-11.458
	c0.12-8.582,0.43-17.364-6.102-23.895c-7.33-7.33-20.389-7.4-29.895-10.449c-22.456-7.204-46.048-24.124-47.91-49.656
	c-1.395-19.125,14.438-29.37,30.91-34.279c6.205-1.85,17.486-1.787,20.258-8.74c2.438-6.112,0.742-15.473,0.742-21.979v-47v-47
	c0-33.466-2.006-66.58-30-89.535c-19.448-15.947-44.123-22.8-67-32.068c-17.98-7.285-33.906-18.297-46.195-33.396
	c-3.592-4.412-9.191-12.215-15.656-7.396c-8.133,6.061,1.873,16.49,6.141,21.396C81.334,131.5,99.218,142.697,119.019,150.379
	 M348.018,169.379c20.363-11.828,51.207-2.725,71,6.784c4.525,2.173,8.921,4.778,13,7.7c2.925,2.096,6.138,5.168,10,5.074
	c5.138-0.127,8.877-5.738,6.976-10.469c-1.271-3.162-4.318-5.404-6.979-7.344c-15.162-11.063-32.297-13.561-48.996-20.746
	c19.802-7.682,37.685-18.879,51.711-35c4.132-4.747,16.435-19.883,3.285-22.663c-5.446-1.151-9.028,4.006-11.996,7.663
	c-6.411,7.904-13.653,15.096-22,20.964c-34.422,24.203-84.608,25.201-108.539,64.036c-13.233,21.479-13.461,45.613-13.461,70v68v33
	c0,4.88-1.09,11.37,0.742,15.979c2.99,7.525,16.508,7.466,23.258,9.69c20.472,6.744,32.517,21.694,25.796,43.329
	c-6.47,20.825-26.955,33.827-46.796,39.975c-8.465,2.622-19.906,2.788-26.983,8.42c-8.216,6.534-8.146,16.021-8.013,25.605
	c0.07,4.942,1.75,11.543,7.996,11.543c13.853,0,2.816-21.455,13.021-25.514c4.373-1.74,9.442-2.162,13.979-3.456
	c9.349-2.668,18.453-6.245,27-10.882c26.341-14.287,51.533-53.526,31.226-82.688c-6.301-9.051-15.951-15.563-26.226-19.309
	c-4.723-1.724-16.237-2.826-18.396-7.841c-1.551-3.602-0.604-9.01-0.604-12.854v-29v-65c0-17.158-0.729-33.762,5.824-50
	c1.625-4.027,3.59-8.477,6.566-11.699c15.117-16.371,39.783-5.344,53.596,6.703c5.248,4.578,17.992,24.561,24.82,10.952
	c2.981-5.945-3.769-12.854-7.396-16.866C380.025,180.861,364.586,172.594,348.018,169.379z"/>
<path fill="#E7364D" d="M243.16,508c-2.828,0-3.617-2.012-4.019-10.247c-0.269-5.503-0.547-11.192-4.591-13.923
	c-2.683-1.81-6.001-2.401-8.929-2.923c-1.037-0.185-2.017-0.359-2.891-0.572c-7.189-1.755-13.778-3.837-19.585-6.189
	c-22.966-9.303-49.341-31.555-48.089-63.649c0.625-15.995,10.541-29.508,27.203-37.073c4.616-2.095,9.732-3.644,14.572-5.006
	c0.337-0.095,0.688-0.185,1.044-0.276c2.415-0.622,5.721-1.473,7.636-4.437c2.035-3.151,1.796-7.434,1.604-10.874
	c-0.05-0.896-0.097-1.741-0.097-2.451v-95c0-1.776,0.009-3.547,0.018-5.314c0.077-15.442,0.157-31.411-6.059-46.809
	c-1.551-3.845-3.779-8.751-7.266-12.592c-5.562-6.127-12.709-9.234-21.242-9.234c-13.578,0-27.709,8.106-36.407,15.692
	c-1.22,1.063-2.652,2.695-4.312,4.584c-3.384,3.853-9.049,10.303-12.596,10.303c-0.432,0-1.746,0-3.261-3.02
	c-1.904-3.795,3.262-9.468,6.348-12.856l0.592-0.652c7.3-8.07,17.099-14.803,28.336-19.47c1.892-0.785,3.862-1.367,5.948-1.983
	c2.709-0.8,5.511-1.627,8.22-2.954l7.018-3.437l-7.515-2.143c-1.405-0.4-2.788-0.906-4.251-1.441c-2.562-0.937-5.21-1.905-8.13-2.34
	c-3.279-0.488-6.739-0.736-10.283-0.736c-12.928,0-27.82,3.303-44.263,9.817c-7.126,2.823-13.735,6.399-19.642,10.63
	c-0.506,0.363-1.023,0.754-1.553,1.156c-2.18,1.653-4.434,3.363-6.519,3.363l0,0c-0.22,0-0.441-0.02-0.657-0.058
	c-2.264-0.398-3.541-1.158-3.796-2.256c-0.606-2.613,2.816-7.727,6.043-10.081c9.549-6.967,19.922-10.401,30.905-14.038
	c5.734-1.898,11.663-3.861,17.509-6.376l6.739-2.899l-6.839-2.653c-20.835-8.083-37.836-19.579-50.532-34.17l-0.803-0.916
	c-2.827-3.212-8.09-9.19-7.669-13.21c0.074-0.703,0.346-1.767,1.861-2.896c0.834-0.622,1.611-0.924,2.376-0.924
	c2.878,0,6.241,4.182,8.466,6.948l0.694,0.86c12.15,14.929,28.096,26.463,47.395,34.282c5.033,2.039,10.226,3.99,15.248,5.876
	c17.777,6.678,36.16,13.583,50.977,25.731c26.692,21.887,28.902,53.744,28.902,87.215v94c0,1.906,0.133,3.969,0.274,6.152
	c0.331,5.124,0.706,10.932-0.803,14.716c-1.468,3.682-7.405,4.773-12.643,5.737c-2.049,0.377-3.984,0.732-5.685,1.239
	c-22.577,6.729-34.313,20.001-33.045,37.372c1.997,27.375,27.13,44.963,49.986,52.295c3.06,0.981,6.462,1.669,9.753,2.334
	c7.121,1.438,14.483,2.927,18.937,7.38c5.46,5.459,5.35,13.027,5.234,21.039l-0.01,0.692c-0.072,5.189-1.582,8.063-4.487,8.54
	C244.033,507.958,243.572,508,243.16,508z M268.018,507.92c-4.399,0-4.96-6.004-4.996-8.586c-0.125-9.024-0.243-17.549,6.88-23.215
	c4.205-3.346,10.585-4.581,16.755-5.774c3.119-0.604,6.345-1.228,9.249-2.128c11.891-3.684,40.446-15.146,48.773-41.95
	c6.693-21.549-3.67-39.145-27.723-47.068c-2.019-0.665-4.447-1.119-7.02-1.601c-5.711-1.068-12.819-2.398-14.389-6.348
	c-1.108-2.789-0.885-6.939-0.688-10.601c0.081-1.497,0.157-2.91,0.157-4.271v-101c0-23.255,0-47.302,13.015-68.426
	c14.324-23.246,38.161-32.335,63.397-41.959c15.22-5.804,30.957-11.806,44.313-21.197c8.052-5.661,15.445-12.702,22.604-21.528
	l0.721-0.897c2.18-2.728,4.65-5.82,7.411-5.82c0.295,0,0.603,0.033,0.914,0.099c1.928,0.408,3.068,1.103,3.391,2.065
	c0.685,2.044-1.083,7.381-8.318,15.693c-12.696,14.593-29.698,26.09-50.533,34.173l-6.839,2.653l6.738,2.899
	c5.862,2.522,11.793,4.484,17.528,6.381c10.962,3.626,21.316,7.051,30.885,14.033c2.346,1.71,5.003,3.647,5.965,6.039
	c0.52,1.293,0.316,2.846-0.545,4.153c-0.882,1.341-2.273,2.163-3.722,2.198l-0.1,0.001c-2.115,0-4.334-1.688-6.479-3.321
	c-0.543-0.413-1.075-0.818-1.599-1.193c-4.238-3.036-8.763-5.715-13.449-7.966c-9.866-4.74-29.33-12.692-48.827-12.692
	c-9.699,0-18.104,2.025-24.979,6.018l-6.914,4.016l7.85,1.523c16.277,3.159,31.107,11.382,41.757,23.155l0.595,0.654
	c3.085,3.388,8.248,9.059,6.345,12.854c-1.509,3.006-2.817,3.019-3.255,3.019c-0.002,0-0.004,0-0.006,0
	c-3.548-0.001-9.213-6.452-12.598-10.307c-1.658-1.887-3.089-3.517-4.309-4.581c-8.703-7.59-22.829-15.701-36.378-15.701
	c-8.544,0-15.741,3.104-21.394,9.224c-3.367,3.645-5.453,8.42-7.145,12.611c-6.176,15.301-6.116,30.431-6.054,46.449
	c0.006,1.553,0.012,3.111,0.012,4.674v94c0,0.925-0.063,1.994-0.129,3.126c-0.209,3.566-0.445,7.609,0.978,10.915
	c2.177,5.058,9.577,6.82,15.523,8.237c1.801,0.429,3.501,0.834,4.6,1.235c10.473,3.817,19.276,10.282,24.792,18.204
	c6.496,9.328,8.414,20.648,5.549,32.735c-4.198,17.713-18.896,36.465-35.743,45.603c-8.005,4.343-16.885,7.92-26.393,10.634
	c-1.704,0.486-3.502,0.843-5.406,1.222c-2.943,0.584-5.987,1.188-8.859,2.332c-6.514,2.591-6.771,9.773-6.978,15.545
	C272.661,506.279,271.831,507.92,268.018,507.92z"/>
<path fill="#4C4E54" d="M185,416c1.576,17.938,19.73,27.844,35,32.996c7.859,2.652,16.212,3.547,24,6.387
	c3.73,1.361,8.016,5.497,12,5.497c4.896,0,11.032-5.36,16-6.728c20.497-5.646,52.668-11.608,55-38.152H185z"/>
<path display="none" fill="#E7364D" d="M313.994,138.562c-23.355,11.098-37.504,37.67-42.4,62c-4.445,22.098-3.6,44.566-3.6,67v91
	h-24v-91c0-22.435,0.846-44.902-3.6-67c-4.896-24.33-19.045-50.902-42.4-62c6.177-5.396,13.064-10.625,15.195-19
	c1.449-5.693-2.744-12.046-9.152-10.305c-4.134,1.125-5.398,5.183-7.68,8.302c-4.021,5.496-12.204,11.157-19.363,8.998
	c-6.157-1.858-12.189-5.472-18-8.214c-12.051-5.688-24.335-11.262-33.91-20.871c-4.723-4.74-7.295-10.494-11.055-15.866
	c-2.901-4.144-8.396-6.581-12.602-2.53c-4.691,4.519-0.625,11.928,1.879,16.486c7.004,12.753,18.297,21.238,30.688,28.281
	c19.25,10.943,41.188,17.126,59,30.619c5.986,4.533,11.832,10.197,16.482,16.1c20.707,26.281,18.518,60.55,18.518,92v84
	c0,8.1-3.357,24.69,7.004,27.565c3.719,1.031,8.172,0.435,11.996,0.435c8,0,16,0.041,24-0.002c4.301-0.021,8.557-0.226,11.258-4.107
	c2.934-4.215,1.742-11.029,1.742-15.891v-37v-66c0-30.973,0.738-63.454,24.004-87c24.378-24.672,60.166-29.186,85.996-51.3
	c6.69-5.728,12.421-12.728,16.215-20.7c1.546-3.248,3.422-7.321,2.028-10.945c-2.692-6.998-10.841-4.92-14.278-0.011
	c-3.494,4.993-5.906,10.384-10.139,14.917c-9.792,10.486-23.187,16.197-35.826,22.297c-5.654,2.729-13.627,8.197-20,8.229
	c-6.355,0.031-12.777-4.588-16.363-9.489c-3.258-4.454-6.621-11.465-13.423-7.536c-4.293,2.479-4.308,7.415-2.745,11.539
	C302.258,128.935,308.251,133.544,313.994,138.562z"/>
<path fill="#E7364D" d="M240.507,371.734c-1.988,0-3.484-0.158-4.708-0.497c-5.688-1.578-5.646-9.727-5.039-19.415
	c0.12-1.906,0.233-3.707,0.233-5.26v-84c0-2.725,0.017-5.47,0.033-8.229c0.179-29.893,0.364-60.804-19.195-85.627
	c-4.709-5.978-10.756-11.886-17.027-16.635c-11.061-8.378-23.726-14.032-35.975-19.5c-7.811-3.487-15.888-7.092-23.354-11.336
	c-9.915-5.636-22.233-13.811-29.541-27.117c-2.767-5.036-5.233-10.178-2.427-12.881c0.863-0.832,1.773-1.236,2.78-1.236
	c1.794,0,3.868,1.306,5.283,3.326c1.221,1.745,2.351,3.596,3.442,5.385c2.249,3.685,4.573,7.494,7.945,10.878
	c9.561,9.594,21.629,15.281,33.3,20.78l1.455,0.686c1.668,0.788,3.337,1.639,5.104,2.541c4.281,2.185,8.708,4.444,13.31,5.833
	c1.317,0.397,2.706,0.599,4.127,0.599c7.39,0,14.628-5.373,18.523-10.697c0.66-0.903,1.218-1.829,1.758-2.725
	c1.468-2.438,2.461-3.957,4.289-4.454c0.458-0.124,0.903-0.188,1.324-0.188c1.552,0,2.55,0.865,3.114,1.591
	c1.097,1.411,1.487,3.429,1.019,5.267c-1.691,6.646-6.908,11.14-12.431,15.897c-0.613,0.528-1.225,1.056-1.83,1.584l-3.442,3.007
	l4.128,1.961c23.395,11.117,36.388,38.223,40.747,59.882c3.772,18.752,3.671,38.255,3.573,57.117
	c-0.016,3.097-0.032,6.195-0.032,9.292v94h30v-94c0-3.098-0.016-6.195-0.032-9.293c-0.098-18.861-0.199-38.364,3.573-57.116
	c4.358-21.66,17.353-48.766,40.746-59.882l4.129-1.961l-3.442-3.007c-0.588-0.514-1.18-1.024-1.77-1.533
	c-4.982-4.298-9.689-8.358-11.931-14.27c-0.658-1.738-1.836-5.985,1.44-7.877c0.863-0.499,1.633-0.751,2.289-0.751
	c2.085,0,4.094,2.94,5.866,5.534c0.456,0.667,0.902,1.319,1.346,1.926c3.618,4.945,10.691,10.718,18.721,10.718
	c5.655-0.028,11.686-3.322,17.006-6.228c1.568-0.857,3.051-1.667,4.362-2.3c1.302-0.628,2.611-1.251,3.924-1.877
	c11.613-5.534,23.622-11.255,32.791-21.074c2.917-3.124,5-6.572,7.015-9.906c1.124-1.86,2.186-3.617,3.39-5.338
	c1.324-1.891,3.657-3.213,5.672-3.213c1.585,0,2.681,0.844,3.349,2.581c0.959,2.494-0.715,6.01-1.938,8.578
	c-3.403,7.151-8.748,13.967-15.457,19.711c-11.719,10.032-25.964,16.536-39.739,22.824c-16.242,7.415-33.037,15.082-46.439,28.646
	c-24.87,25.169-24.87,60.622-24.87,89.108v103c0,1.119,0.057,2.28,0.116,3.51c0.187,3.843,0.397,8.198-1.32,10.667
	c-1.801,2.587-4.787,2.801-8.811,2.821c-2.747,0.015-5.491,0.02-8.236,0.02c-2.623,0-13.123-0.018-15.749-0.018
	c-1.045,0-2.136,0.042-3.247,0.086C242.678,371.69,241.589,371.734,240.507,371.734z"/>
<path display="none" fill="#4C4E54" d="M154.679,206.971c4.304,10.235,10.412,18.114,8.699,30
	c-4.732,32.854-45.076,50.658-73.699,37.109c-13.316-6.303-23.916-17.516-32.625-29.109c-20.44-27.211-31.853-63.121-33.336-97
	c-1.804-41.2,14.502-88.152,49.961-111.911c28.744-19.261,76.08-15.463,89.934,20.911c3.666,9.625,4.266,20.898,2.258,31
	c-1.081,5.438-3.382,10.514-4.191,16l21,9c12.973-27.739,10.836-63.737-10.174-86.996C157.517,9.383,132.869,0,110.679,0
	C73.246,0,42.02,25.586,23.104,55.971c-36.956,59.362-26.931,142.704,11.321,199c18.398,27.078,49.361,52.244,84.254,47.71
	c10.047-1.305,20.029-4.496,29-9.197c7.418-3.887,14.09-8.545,19.984-14.518c14.835-15.031,20.003-33.399,18.977-53.996
	c-0.375-7.538-2.955-20.015-10.977-22.964C168.901,199.521,160.454,203.685,154.679,206.971z"/>
<path fill="#4C4E54" d="M110.461,297.214c-25.098-0.001-51.667-17.054-71.074-45.615c-18.596-27.368-30.26-61.259-32.843-95.431
	c-2.745-36.312,4.742-69.862,21.653-97.026C48.913,25.866,79.748,6,110.679,6c21.685,0,44.206,9.419,57.375,23.997
	c16.986,18.804,21.389,48.961,11.454,75.086l-10.9-4.671c0.317-1.13,0.672-2.278,1.036-3.455c0.769-2.486,1.564-5.056,2.113-7.816
	c2.295-11.545,1.371-24.049-2.536-34.306c-8.639-22.683-29.895-36.225-56.858-36.225c-15.103,0-30.027,4.427-42.022,12.465
	C36.26,53.91,15.607,99.897,17.724,148.233c1.606,36.691,14.193,73.264,34.533,100.341c11.477,15.278,22.552,25.105,34.855,30.928
	c7.217,3.416,15.149,5.148,23.577,5.148c0.002,0,0.004,0,0.006,0c25.149-0.002,54.242-16.414,58.622-46.825
	c1.578-10.955-2.314-18.939-6.078-26.662c-0.244-0.5-0.49-1.005-0.735-1.513c2.864-1.324,5.975-2.401,8.663-2.401
	c0.91,0,1.726,0.13,2.426,0.387c4.131,1.519,6.676,10.019,7.055,17.631c1.021,20.498-4.623,36.684-17.255,49.482
	c-5.122,5.19-11.173,9.58-18.498,13.418c-8.394,4.398-17.726,7.359-26.988,8.562c-2.462,0.32-4.966,0.482-7.442,0.482
	C110.463,297.214,110.462,297.214,110.461,297.214z"/>
<path display="none" fill="#4C4E54" d="M329.464,112.971l21-9c-0.81-5.486-3.111-10.563-4.191-16
	c-1.922-9.665-1.426-20.727,1.891-30c12.244-34.254,57.877-42.367,86.302-24.305c37.817,24.029,55.871,70.688,53.961,114.305
	c-1.482,33.847-12.916,69.814-33.336,97c-8.709,11.593-19.31,22.806-32.625,29.109c-28.624,13.549-68.968-4.256-73.7-37.109
	c-1.712-11.887,4.396-19.766,8.7-30c-5.78-3.291-14.216-7.444-20.984-4.965c-8.135,2.98-10.594,15.327-10.977,22.965
	c-1.033,20.588,4.126,38.949,18.977,53.996c5.895,5.971,12.566,10.631,19.984,14.518c6.244,3.271,13.105,5.97,20,7.472
	c38.625,8.422,72.239-15.056,93.254-45.984c38.73-57.002,47.851-140.119,10.683-200C469.769,24.953,438.254,0,401.464,0
	c-22.189,0-46.839,9.383-61.826,25.975C318.616,49.246,316.489,85.227,329.464,112.971z"/>
<path fill="#4C4E54" d="M400.312,296.685c-4.825,0-9.727-0.535-14.568-1.591c-5.911-1.288-12.306-3.682-18.494-6.924
	c-7.321-3.836-13.372-8.226-18.499-13.418c-12.638-12.806-18.282-28.991-17.254-49.48c0.37-7.384,2.733-16.052,7.048-17.632
	c0.713-0.261,1.509-0.388,2.433-0.388c2.691,0,5.802,1.077,8.664,2.399c-0.246,0.508-0.492,1.012-0.735,1.513
	c-3.765,7.722-7.657,15.707-6.079,26.663c4.381,30.414,33.471,46.825,58.618,46.825c0.003,0,0.003,0,0.006,0
	c8.433-0.001,16.366-1.733,23.582-5.148c12.303-5.823,23.379-15.651,34.854-30.928c20.34-27.079,32.927-63.651,34.533-100.341
	c2.163-49.399-20.107-96.358-56.737-119.632c-10.438-6.633-23.477-10.285-36.715-10.285c-27.338,0-50.282,14.772-58.455,37.635
	c-3.563,9.964-4.338,22.062-2.125,33.19c0.548,2.76,1.344,5.332,2.113,7.82c0.364,1.175,0.719,2.322,1.035,3.451l-10.899,4.671
	c-9.936-26.125-5.532-56.283,11.453-75.086C357.258,15.419,379.778,6,401.464,6c30.981,0,61.576,19.49,81.84,52.136
	c17.081,27.52,24.77,61.234,22.232,97.497c-2.399,34.305-14.041,68.387-32.78,95.967
	C453.288,280.252,426.883,296.685,400.312,296.685z"/>
</svg>
