<?xml version="1.0" encoding="utf-8"?>
<!-- Generator: Adobe Illustrator 16.0.0, SVG Export Plug-In . SVG Version: 6.00 Build 0)  -->
<!DOCTYPE svg PUBLIC "-//W3C//DTD SVG 1.1//EN" "http://www.w3.org/Graphics/SVG/1.1/DTD/svg11.dtd">
<svg version="1.1" id="Layer_1" xmlns="http://www.w3.org/2000/svg" xmlns:xlink="http://www.w3.org/1999/xlink" x="0px" y="0px"
	 width="512px" height="512px" viewBox="0 0 512 512" enable-background="new 0 0 512 512" xml:space="preserve">
<path fill="#4C4E54" d="M364.02,497.972c-4.398,0-8.731-0.185-12.88-0.55c-61.578-5.387-123.425-32.954-189.077-84.279
	c-56.354-44.048-89.899-88.215-102.552-135.025c-7.495-27.734-6.657-56.624,2.422-83.543c4.244-12.574,10.561-23.981,16.67-35.013
	l0.115-0.207c4.507-8.158,8.72-15.783,12.179-23.818c0.291-0.683,0.569-1.339,0.842-2.004l0.047-0.117
	c0.701-1.783,10.93-31.935,15.641-45.858c4.503,0.749,10.999,2.648,15.162,4.303c-6.034,17.526-15.765,45.324-16.643,47.5
	c-3.958,9.641-8.981,18.721-13.839,27.502l-0.154,0.278c-6.011,10.872-11.688,21.139-15.475,32.339
	c-8.1,24.027-8.843,49.833-2.149,74.635c11.753,43.488,43.547,85.009,97.198,126.936c63.24,49.441,122.428,75.962,180.945,81.074
	c3.656,0.33,7.549,0.498,11.548,0.498c25.124,0,45.585-6.312,56.139-17.316c10.953-11.426,15.796-33.708,18.486-49.475
	c7.288-42.841,1.987-87.319-3.445-121.285c-6.744-42.266-19.082-90.494-58.896-130.189c5.518-2.08,10.985-3.813,16.34-5.178
	c38.813,41.803,50.973,90.609,57.721,132.957c5.61,35.133,11.068,81.229,3.415,126.232c-3.021,17.768-8.645,43.065-22.534,57.557
	C412.851,495.107,381.23,497.972,364.02,497.972z"/>
<path fill="#E7364D" d="M184.752,252.064c-2.915,0-5.579-1.596-6.951-4.166c-26.68-50.023-32.896-88.28-19.002-116.95
	c5.579-11.499,13.778-20.12,24.368-25.62l10.501-5.453l-5.306-10.577c-10.691-21.313-68.894-38.469-85.918-41.005
	c-4.281-0.639-7.248-4.646-6.607-8.931c0.567-3.824,3.896-6.699,7.746-6.699c0.39,0,0.787,0.03,1.18,0.088
	c38.436,5.731,92.104,32.73,101.098,57.662l2.769,7.677l8.158,0.246c1.253,0.038,2.363,0.095,3.392,0.176l7.564,0.595l3.781-6.578
	c13.513-23.506,4.789-44.889-5.527-62.706c-2.174-3.753-0.894-8.573,2.854-10.745c1.213-0.704,2.53-1.06,3.913-1.06
	c2.807,0,5.422,1.505,6.827,3.928c15.598,26.919,18.651,49.254,9.608,70.291l-4.56,10.606l9.915,4.725
	c-4.459,3.775-8.708,7.669-12.728,11.667c-0.248-0.093-0.497-0.185-0.749-0.276c-4.305-1.583-11.222-3.678-19.409-4.556
	c-2.536-0.28-5.093-0.424-7.563-0.424c-3.515,0-6.933,0.292-10.158,0.866c-6.967,1.243-13.133,3.801-18.333,7.602
	c-5.359,3.908-9.626,9.079-12.672,15.361c-11.551,23.817-5.426,57.413,18.725,102.705c0.989,1.853,1.196,3.975,0.585,5.979
	c-0.611,2.005-1.966,3.651-3.817,4.636C187.266,251.755,186.037,252.064,184.752,252.064z"/>
<path fill="#E7364D" d="M343.017,212.808c-2.18,0-4.205-0.869-5.701-2.447c-2.52-2.66-7.112-8.017-11.924-13.727
	c3.672-3.428,7.744-6.763,12.135-9.935c5.464,6.486,9.016,10.565,11.177,12.848c2.985,3.148,2.855,8.127-0.284,11.105
	C346.953,212.043,345.035,212.808,343.017,212.808z"/>
<path fill="#4C4E54" d="M237.057,205.736c-0.466,0-0.938-0.045-1.404-0.134c-2.029-0.39-3.818-1.625-4.907-3.389
	c-1.084-1.756-1.385-3.897-0.826-5.876c9.735-34.495,37.741-66.728,78.857-90.762C342.24,86.017,379.903,74.8,412.109,74.8
	c9.14,0,17.733,0.903,25.541,2.685c2.022,0.463,3.768,1.769,4.786,3.581c1.023,1.824,1.229,4.003,0.564,5.978
	c-1.012,3.029-3.818,5.061-6.984,5.061c-0.544,0-1.104-0.065-1.664-0.193c-6.851-1.591-14.449-2.399-22.574-2.399
	c-29.347,0-64.165,10.516-95.527,28.851c-37.237,21.763-63.5,51.614-72.053,81.898C243.289,203.485,240.353,205.736,237.057,205.736
	z"/>
<path fill="#4C4E54" d="M348.68,371.295c-4.019,0-7.336-3.263-7.396-7.273c-0.028-2.023,0.003-4.049,0.03-5.835l0.021-1.194
	c0.141-8.483,0.3-18.081-5.539-24.773l-2.962-3.403l-2.189,3.212c-1.3,1.907-2.787,3.703-4.421,5.34
	c-1.367,1.373-3.188,2.128-5.129,2.128c-2.68,0-5.166-1.442-6.489-3.765c-1.653-2.899-1.141-6.511,1.276-8.986
	c2.593-2.664,4.553-6.017,5.522-9.443c0.099-0.352,0.216-0.696,0.349-1.03l0.785-1.972l-2.184-1.908
	c-4.4-3.813-9.394-7.421-14.824-10.705l-2.626-1.589l-1.528,2.661c-5.127,8.926-11.821,16.753-17.08,22.575
	c-1.412,1.563-3.429,2.459-5.531,2.459c-1.868,0-3.653-0.701-5.025-1.976c-2.951-2.74-3.146-7.411-0.432-10.412
	c8.946-9.894,17.661-20.795,20.828-33.461c1.398-5.602,1.731-11.625,1.973-17.818c0.155-4.03,0.511-7.964,0.854-11.768
	c1.892-20.959,1.331-27.959-12.57-31.003c-5.386-1.181-9.739-4.733-11.943-9.745c-1.907-4.33-1.759-9.537,0.407-14.288
	c9.438-20.699,29.499-40.785,56.488-56.559c27.194-15.898,57.947-25.39,82.263-25.39c4.42,0,8.626,0.314,12.502,0.934
	c2.164,0.348,4.068,1.63,5.222,3.517c1.121,1.852,1.371,4.102,0.68,6.162c-1.011,3.019-3.839,5.046-7.036,5.046
	c-0.386,0-0.792-0.033-1.208-0.099c-3.004-0.483-6.334-0.729-9.892-0.729c-21.636,0-50.387,8.95-75.034,23.358
	c-23.743,13.876-42.055,31.875-50.239,49.379l-1.557,3.331l3.575,0.857c26.734,6.411,24.729,28.62,23.118,46.466l-0.026,0.295
	c-0.318,3.561-0.647,7.243-0.788,10.824c-0.258,6.511-0.608,12.891-2.05,19.339l-0.521,2.328l2.049,0.982
	c8.096,4.642,15.247,10.346,21.88,15.79c6.769,5.555,15.01,8.731,22.979,11.804l0.925,0.354
	c19.32,7.455,36.172,11.096,51.514,11.128c3.143,0.009,5.756,2.473,5.947,5.611l0.178,2.92c0.098,1.626-0.487,3.242-1.604,4.432
	c-1.119,1.187-2.627,1.842-4.242,1.842c-15.526,0-32.033-3.158-50.464-9.653l-5.594-1.972l1.727,5.674
	c1.013,3.327,1.72,6.742,2.103,10.149c0.48,4.328,0.429,8.535,0.378,12.604l-0.009,0.727c-0.023,1.729-0.046,3.361-0.024,5.008
	c0.052,3.693-2.661,6.888-6.31,7.431C349.412,371.267,349.038,371.295,348.68,371.295z"/>
</svg>
