<?xml version="1.0" encoding="utf-8"?>
<!-- Generator: Adobe Illustrator 16.0.0, SVG Export Plug-In . SVG Version: 6.00 Build 0)  -->
<!DOCTYPE svg PUBLIC "-//W3C//DTD SVG 1.1//EN" "http://www.w3.org/Graphics/SVG/1.1/DTD/svg11.dtd">
<svg version="1.1" id="Layer_1" xmlns="http://www.w3.org/2000/svg" xmlns:xlink="http://www.w3.org/1999/xlink" x="0px" y="0px"
	 width="512px" height="512px" viewBox="0 0 512 512" enable-background="new 0 0 512 512" xml:space="preserve">
<path fill="none" stroke="#4D4E54" stroke-width="14" stroke-miterlimit="10" d="M256,255.736l1.236,0.088
	c14.388,1.035,27.464,8.26,36.822,20.34c8.944,11.58,15.568,25.884,18.656,40.288c3.3,15.464,5.776,31.124,8.168,46.264
	c2.256,14.252,4.584,28.988,7.552,43.116c3,14.284,6.364,29.588,10.648,44.732c0.628,2.216,1.244,4.544,1.876,6.936
	c0.496,1.872,1,3.788,1.532,5.72c1.044,3.824,4.556,6.558,8.548,6.688l0.252,0.004c3.552,0,6.82-2.068,8.328-5.27
	c5.7-12.044,10.788-22.888,15.448-33.866c4.936-11.648,9.862-23.576,14.632-35.112c17.684-42.801,35.972-87.057,59.522-128.775
	c14.792-26.193,22.236-56.837,22.744-93.669c-0.26-3.188-0.492-6.384-0.724-9.576c-0.528-7.336-1.028-14.268-1.888-21.124
	c-4.164-32.948-17.7-58.056-41.382-76.744c-20.188-15.952-42.6-23.704-68.526-23.704c-13.306,0-27.722,2.116-42.85,6.296
	c-20.388,5.632-40.747,8.544-60.508,8.66h-0.196c-19.764-0.112-40.12-3.028-60.512-8.66c-15.128-4.176-29.544-6.296-42.848-6.296
	c-25.924,0-48.34,7.752-68.52,23.696c-23.684,18.692-37.22,43.8-41.388,76.768c-0.856,6.824-1.356,13.744-1.884,21.068
	c-0.232,3.204-0.464,6.408-0.724,9.608c0.508,36.828,7.952,67.476,22.74,93.664c23.552,41.72,41.84,85.976,59.52,128.772
	c4.768,11.534,9.696,23.464,14.636,35.118c4.664,10.996,9.752,21.832,15.436,33.846c1.52,3.22,4.788,5.288,8.34,5.288l0.292-0.006
	c3.952-0.132,7.464-2.862,8.496-6.64c0.544-1.976,1.052-3.892,1.544-5.764c0.632-2.396,1.252-4.726,1.876-6.94
	c4.28-15.128,7.648-30.438,10.648-44.728c2.968-14.128,5.3-28.868,7.552-43.12c2.396-15.141,4.868-30.797,8.168-46.244
	c3.096-14.428,9.72-28.729,18.648-40.288c9.376-12.101,22.452-19.324,36.84-20.36L256,255.736z"/>
<path fill="#E7364D" d="M118.728,290.004c-2.467,0-4.752-1.331-5.963-3.475c-2.409-4.267-4.815-8.413-7.143-12.424
	c-17.817-30.719-33.2-57.238-28.185-96.889c3.893-30.763,17.269-55.359,39.757-73.105c19.135-15.118,41.31-22.783,65.914-22.783
	c12.211,0,25.24,1.887,38.725,5.608c14.166,3.913,28.248,5.935,41.852,6.011c13.58-0.077,27.605-2.099,41.771-6.011
	c0.595-0.164,1.211-0.248,1.823-0.248c3.059,0,5.765,2.061,6.579,5.012c0.486,1.759,0.259,3.601-0.642,5.188
	c-0.899,1.587-2.362,2.728-4.119,3.212c-15.323,4.233-30.601,6.422-45.413,6.506c-14.834-0.084-30.167-2.272-45.486-6.505
	c-12.338-3.407-24.132-5.134-35.056-5.134c-21.462,0-40.801,6.681-57.479,19.857c-19.855,15.671-31.196,36.638-34.667,64.097
	c-4.435,35.076,9.192,58.567,26.445,88.308c2.375,4.097,4.807,8.29,7.225,12.572c0.897,1.589,1.122,3.432,0.633,5.188
	s-1.633,3.219-3.221,4.115C121.024,289.706,119.903,290.004,118.728,290.004z"/>
</svg>
