<?xml version="1.0" encoding="utf-8"?>
<!-- Generator: Adobe Illustrator 16.0.0, SVG Export Plug-In . SVG Version: 6.00 Build 0)  -->
<!DOCTYPE svg PUBLIC "-//W3C//DTD SVG 1.1//EN" "http://www.w3.org/Graphics/SVG/1.1/DTD/svg11.dtd">
<svg version="1.1" id="Layer_1" xmlns="http://www.w3.org/2000/svg" xmlns:xlink="http://www.w3.org/1999/xlink" x="0px" y="0px"
	 width="512px" height="512px" viewBox="0 0 512 512" enable-background="new 0 0 512 512" xml:space="preserve">
<path fill="#E7364D" d="M181.12,187.182c-4.392,0-8.791-1.93-12.068-5.296c-3.273-3.361-5.084-7.803-4.969-12.188
	c0.239-9.112,8.055-16.81,17.067-16.81l0.171,0.001c9.192,0.093,16.677,7.77,16.687,17.112c0.01,9.348-7.47,17.055-16.674,17.181
	L181.12,187.182z"/>
<path fill="none" stroke="#4C4E54" stroke-width="14" stroke-miterlimit="10" d="M107.221,330.68
	c0.396,1.717,0.757,3.428,1.115,5.125c0.704,3.354,1.432,6.825,2.43,10.01c9.126,29.42,27.792,61.843,49.922,86.713
	c19.432,21.837,50.668,48.109,89.128,49.266c1.05,0.031,2.07,0.048,3.081,0.048c0.979,0,1.948-0.016,2.922-0.049l0.252-0.012
	l0.116,0.004c1.015,0.031,2.006,0.047,3,0.047s1.986-0.016,2.979-0.046c38.47-1.153,69.713-27.424,89.147-49.259
	c22.134-24.866,40.797-57.28,49.925-86.708c0.98-3.125,1.674-6.416,2.405-9.9l0.021-0.102c0.358-1.707,0.722-3.42,1.121-5.141
	l1.09-4.722l4.834-0.134c15.289-0.422,24.595-5.269,30.172-15.713c9.659-18.073,14.566-38.726,14.583-61.377
	c0-13.113-4.781-18.212-18.948-20.211c-1.961-0.263-3.895-0.657-5.6-1.005l-0.655-0.132c-0.49-0.099-0.979-0.198-1.463-0.291
	l-6.009-1.143l0.993-6.022c0.416-2.506,0.836-4.92,1.243-7.269l0.152-0.882c0.854-4.891,1.662-9.511,2.26-14.088
	c4.841-37.376-1.745-67.49-20.134-92.07C372.57,59.172,323.243,34.516,256.51,30.242L256,30.208l-0.511,0.033
	c-66.73,4.274-116.054,28.932-150.792,75.38c-18.391,24.584-24.976,54.705-20.131,92.083c0.608,4.649,1.425,9.315,2.289,14.255
	c0.448,2.565,0.909,5.212,1.37,7.979l0.991,6.013l-6,1.142c-0.714,0.137-1.426,0.279-2.143,0.427
	c-1.692,0.345-3.628,0.74-5.634,1.012c-14.141,1.997-18.899,7.095-18.899,20.211c0.017,22.653,4.922,43.299,14.58,61.37
	c5.582,10.447,14.888,15.296,30.175,15.719l4.837,0.134L107.221,330.68z"/>
<path fill="#4C4E54" d="M302.2,412.467c-1.101,0-2.267-0.329-3.373-0.953c-12.987-7.354-26.517-11.086-40.198-11.086
	c-13.475,0-27.359,3.623-41.265,10.771c-1.468,0.753-2.916,1.15-4.186,1.15c-1.954,0-3.433-0.921-4.396-2.736
	c-1.132-2.131-0.754-3.331-0.63-3.727c0.47-1.492,2.108-3.022,4.612-4.31c16.376-8.389,31.728-11.864,52.985-11.996
	c8.175,0,23.168,3.896,38.181,12.604c1.281,0.741,2.904,2.008,3.385,3.842c0.317,1.225,0.068,2.539-0.741,3.903
	C305.604,411.568,304.053,412.467,302.2,412.467z"/>
<path fill="#4C4E54" d="M256.996,355.611c-10.441-0.252-18.436-4.734-24.377-13.701c-2.183-3.294-1.84-6.395,0.917-8.291
	c0.959-0.66,1.895-0.994,2.783-0.994c2.022,0,3.813,1.702,4.958,3.13c4.575,5.716,10.447,8.864,16.532,8.864
	c0.002,0,0.002,0,0.002,0c6.252-0.001,12.276-3.307,16.963-9.311c1.355-1.729,3.004-2.685,4.639-2.685
	c0.926,0,1.847,0.304,2.736,0.899c2.521,1.703,3.078,4.68,1.381,7.4c-6.172,9.904-14.6,14.569-26.52,14.686h-0.014V355.611z"/>
<path fill="#4C4E54" d="M216.52,244.568c-6.849,0-13.659-2.147-20.244-4.225l-0.17-0.053c-4.692-1.471-9.545-2.992-14.433-3.737
	c-5.196-0.796-10.569-1.2-15.966-1.2c-11.292,0-22.848,1.799-33.42,5.203c-0.408,0.132-0.795,0.198-1.156,0.198l0,0
	c-0.321,0-0.774-0.054-1.11-0.313c-1.053-0.822-1.023-1.561-1.013-1.804c0.114-2.822,5.625-6.47,7.436-7.668
	c6.346-4.222,11.218-6.108,17.389-6.735c2.879-0.296,5.919-0.446,9.043-0.446c13.175,0,26.43,2.69,39.247,5.292l1.206,0.244
	c3.909,0.792,7.951,1.611,11.947,2.325c3.96,0.713,8.339,1.777,10.737,4.246c2.412,2.477,1.934,4.029,1.776,4.54
	c-0.507,1.617-2.676,3.035-5.519,3.589C220.42,244.385,218.485,244.568,216.52,244.568z"/>
<path fill="#4C4E54" d="M185.5,275.111c-2.4,0-5.051-0.114-8.343-0.361c-8.055-0.607-15.258-2.139-22.016-4.675
	c-4-1.498-7.407-3.127-10.42-4.981c-0.484-0.297-0.959-0.593-1.413-0.904c-2.444-1.635-4.56-3.715-6.606-5.727l-0.396-0.384
	c-0.761-0.738-1.454-1.41-2.143-2.049c11.028,5.804,22.881,8.628,36.178,8.628c1.831,0,3.719-0.055,5.611-0.162
	c2.145-0.121,4.35-0.271,6.583-0.424l0.72-0.053c6.233-0.43,12.678-0.871,19.084-0.871c7.393,0,13.636,0.604,19.087,1.85
	c0.338,0.077,0.533,0.332,0.508,0.652c-0.025,0.358-0.239,0.572-0.562,0.598c-2.925,0.253-5.328,0.493-7.754,1.117
	c-2.742,0.693-5.257,1.89-7.69,3.047l-0.119,0.057c-1.961,0.942-3.969,1.908-6.064,2.612
	C195.642,274.467,191.117,275.111,185.5,275.111z"/>
<path fill="#4C4E54" d="M302.531,244.564c-1.967,0-3.899-0.184-5.744-0.546c-2.854-0.555-5.018-1.962-5.52-3.587
	c-0.425-1.351,0.19-2.911,1.771-4.532c2.411-2.482,6.782-3.542,10.741-4.253c3.852-0.689,7.753-1.476,11.523-2.237l1.604-0.324
	c12.813-2.604,26.06-5.296,39.267-5.296c3.121,0,6.161,0.15,9.036,0.445c6.184,0.632,11.058,2.519,17.389,6.729
	c1.82,1.204,7.325,4.843,7.438,7.677c0.007,0.218,0.032,0.986-1.029,1.815c-0.253,0.193-0.614,0.301-1.068,0.301
	c-0.361,0-0.759-0.068-1.177-0.202c-10.552-3.405-22.103-5.207-33.394-5.207c-5.4,0-10.78,0.405-15.989,1.203
	c-4.948,0.753-10.076,2.366-14.602,3.788C316.132,242.423,309.307,244.564,302.531,244.564z"/>
<path fill="#4C4E54" d="M333.561,275.116c-5.604,0-10.135-0.646-14.253-2.031c-2.054-0.69-4.015-1.632-5.909-2.541l-0.097-0.046
	c-2.489-1.191-5.063-2.424-7.862-3.139c-2.41-0.62-4.824-0.862-7.729-1.114c-0.35-0.027-0.561-0.246-0.581-0.562
	c-0.024-0.348,0.166-0.61,0.485-0.684c5.47-1.247,11.716-1.854,19.105-1.854c6.438,0,12.915,0.445,19.18,0.877l0.585,0.045
	c2.271,0.156,4.475,0.306,6.622,0.427c1.904,0.11,3.816,0.168,5.673,0.168c13.346,0,25.184-2.832,36.141-8.652
	c-0.87,0.806-1.688,1.61-2.438,2.347c-2.204,2.158-4.29,4.201-6.702,5.813c-0.466,0.313-0.918,0.614-1.398,0.9
	c-3.043,1.877-6.443,3.503-10.46,5.008c-6.75,2.537-13.951,4.066-22.021,4.677C338.603,275.001,335.951,275.116,333.561,275.116z"/>
<path fill="#E7364D" d="M264.12,225.477c-4.392,0-8.791-1.93-12.068-5.295c-3.273-3.361-5.084-7.804-4.969-12.19
	c0.239-9.112,8.055-16.81,17.067-16.81l0.172,0.001c9.191,0.093,16.677,7.77,16.687,17.112c0.011,9.348-7.471,17.055-16.674,17.181
	L264.12,225.477z"/>
<path fill="#E7364D" d="M358.066,191.182c-4.393,0-8.791-1.93-12.068-5.295c-3.273-3.361-5.084-7.804-4.969-12.19
	c0.237-9.112,8.055-16.81,17.065-16.81l0.172,0.001c9.192,0.093,16.678,7.77,16.688,17.112c0.01,9.348-7.471,17.055-16.675,17.181
	L358.066,191.182z"/>
<path fill="#E7364D" d="M195.093,338.182c-4.392,0-8.791-1.93-12.068-5.295c-3.273-3.361-5.084-7.804-4.969-12.188
	c0.239-9.112,8.055-16.812,17.067-16.812l0.171,0.002c9.192,0.092,16.677,7.771,16.687,17.111
	c0.01,9.348-7.471,17.055-16.674,17.182H195.093z"/>
<path fill="#E7364D" d="M341.102,344.118c-4.392,0-8.791-1.931-12.067-5.295c-3.273-3.361-5.084-7.804-4.969-12.19
	c0.237-9.111,8.055-16.809,17.065-16.809h0.172c9.192,0.094,16.678,7.77,16.688,17.111c0.01,9.349-7.472,17.056-16.675,17.182
	L341.102,344.118z"/>
<path fill="#E7364D" d="M178.128,389.906c-4.392,0-8.791-1.93-12.068-5.295c-3.273-3.361-5.084-7.805-4.969-12.189
	c0.239-9.111,8.055-16.811,17.067-16.811l0.171,0.002c9.192,0.092,16.677,7.77,16.687,17.111c0.01,9.348-7.471,17.055-16.674,17.18
	L178.128,389.906z"/>
</svg>
