<?xml version="1.0" encoding="utf-8"?>
<!-- Generator: Adobe Illustrator 16.0.0, SVG Export Plug-In . SVG Version: 6.00 Build 0)  -->
<!DOCTYPE svg PUBLIC "-//W3C//DTD SVG 1.1//EN" "http://www.w3.org/Graphics/SVG/1.1/DTD/svg11.dtd">
<svg version="1.1" id="Layer_1" xmlns="http://www.w3.org/2000/svg" xmlns:xlink="http://www.w3.org/1999/xlink" x="0px" y="0px"
	 width="512px" height="512px" viewBox="0 0 512 512" enable-background="new 0 0 512 512" xml:space="preserve">
<g display="none">
	<path display="inline" d="M266,130V70c0-5.523-4.477-10-10-10c-5.523,0-10,4.477-10,10v60c0,5.523,4.477,10,10,10
		C261.523,140,266,135.523,266,130z"/>
	<path display="inline" d="M144.281,148.281c3.905-3.905,3.905-10.237,0-14.143l-42.42-42.42c-3.905-3.905-10.237-3.905-14.143,0
		c-3.905,3.905-3.905,10.237,0,14.143l42.42,42.42C134.043,152.186,140.376,152.187,144.281,148.281z"/>
	<path display="inline" d="M381.862,148.281l42.42-42.42c3.904-3.905,3.904-10.237,0-14.143c-3.905-3.905-10.237-3.905-14.144,0
		l-42.42,42.42c-3.904,3.905-3.904,10.237,0,14.143C371.623,152.186,377.956,152.187,381.862,148.281z"/>
	<path display="inline" d="M2.505,291.71c-3.656,4.14-3.264,10.459,0.875,14.115c4.14,3.655,10.46,3.264,14.115-0.875
		c2.131-2.413,4.314-4.817,6.525-7.206C73.435,372.408,163.013,420,256,420c92.987,0,182.565-47.592,231.98-122.256
		c2.211,2.39,4.394,4.794,6.524,7.206c3.645,4.126,9.963,4.542,14.115,0.875c4.139-3.656,4.531-9.976,0.875-14.115
		C445.97,219.791,351.646,160,256,160C160.341,160,66.018,219.806,2.505,291.71z M256,180c99.74,0,182.061,68.109,217.689,103.02
		C428.471,354.32,343.915,400,256,400S83.529,354.32,38.311,283.02C73.939,248.109,156.261,180,256,180z"/>
</g>
<g>
	<path fill="#E7364D" d="M325.75,306c0-31.344-20.604-57.873-49.003-66.792c-28.87,9.094-48.997,36.382-48.997,66.792
		c0,31.343,20.601,57.87,49,66.791C305.15,363.87,325.75,337.341,325.75,306z"/>
	<path fill="#878787" d="M255.75,286c11.05,0,20,8.95,20,20s-8.95,20-20,20s-20-8.95-20-20S244.7,286,255.75,286z"/>
	<path fill="#4C4E54" d="M196,273.003c-1.87,0-3.626-0.729-4.946-2.052c-1.328-1.324-2.057-3.081-2.057-4.951
		s0.729-3.627,2.051-4.946c1.325-1.328,3.081-2.056,4.951-2.056s3.626,0.728,4.946,2.051c1.328,1.324,2.057,3.081,2.057,4.951
		s-0.729,3.627-2.051,4.946C199.626,272.274,197.87,273.003,196,273.003z"/>
	<path fill="#4C4E54" d="M286,306c0-16.542-13.458-30-30-30s-30,13.458-30,30s13.458,30,30,30S286,322.542,286,306z M246,306
		c0-5.514,4.486-10,10-10c5.514,0,10,4.486,10,10s-4.486,10-10,10C250.486,316,246,311.514,246,306z"/>
	<path fill="#4C4E54" d="M256,381c-41.355,0-75-33.645-75-75c0-0.457,0-0.903,0.012-1.36c0.063-2.745,2.25-4.89,4.977-4.89
		l0.129,0.001c1.343,0.031,2.586,0.58,3.508,1.547c0.922,0.966,1.413,2.233,1.382,3.568C191,305.215,191,305.554,191,305.898V306
		c0,35.841,29.159,65,65,65c35.841,0,65-29.159,65-65c0-35.842-29.159-65-65-65c-9.087,0-17.864,1.833-26.088,5.448
		c-0.641,0.282-1.316,0.424-2.006,0.424c-1.986,0-3.785-1.173-4.583-2.989c-1.109-2.524,0.042-5.481,2.566-6.591
		C235.386,233.117,245.518,231,256,231c41.355,0,75,33.645,75,75S297.355,381,256,381z"/>
	<g>
		<path fill="#4C4E54" d="M256,152c-3.309,0-6-2.691-6-6V86c0-3.309,2.691-6,6-6s6,2.691,6,6v60C262,149.309,259.309,152,256,152z"
			/>
		<path fill="#4C4E54" d="M137.21,163.21c-1.604,0-3.111-0.624-4.244-1.757l-42.42-42.42c-2.339-2.339-2.339-6.146,0-8.486
			c1.133-1.132,2.64-1.757,4.244-1.757c1.603,0,3.109,0.624,4.242,1.757l42.42,42.42c2.339,2.339,2.339,6.146,0,8.486
			C140.32,162.586,138.813,163.21,137.21,163.21L137.21,163.21z"/>
		<path fill="#4C4E54" d="M374.79,163.21c-1.603,0-3.109-0.624-4.242-1.757c-2.339-2.34-2.34-6.147-0.001-8.487l42.42-42.42
			c1.134-1.133,2.641-1.757,4.244-1.757c1.603,0,3.109,0.624,4.243,1.757c2.338,2.339,2.339,6.147,0,8.486l-42.42,42.42
			C377.9,162.586,376.394,163.21,374.79,163.21C374.791,163.21,374.791,163.21,374.79,163.21z"/>
		<path fill="#4C4E54" d="M256,432c-44.89,0-90.003-11.296-130.461-32.666c-40.309-21.291-74.26-51.651-98.183-87.798l-2.811-4.247
			l-3.46,3.738c-2.386,2.578-4.541,4.958-6.588,7.275c-1.138,1.288-2.778,2.027-4.5,2.027c-1.462,0-2.872-0.534-3.97-1.503
			c-2.479-2.19-2.714-5.989-0.524-8.47c33.076-37.444,72.366-69.245,113.624-91.962C165.396,192.918,211.447,180,256,180
			c44.55,0,90.598,12.916,136.863,38.389c41.262,22.718,80.556,54.52,113.634,91.969c2.19,2.479,1.954,6.278-0.525,8.469
			c-1.097,0.969-2.505,1.503-3.965,1.503c-1.724,0-3.365-0.739-4.504-2.028c-2.05-2.319-4.204-4.699-6.586-7.274l-3.46-3.739
			l-2.813,4.248c-23.923,36.146-57.874,66.507-98.183,87.798C346.003,420.704,300.891,432,256,432z M256,192
			c-99.35,0-180.787,65.262-220.488,104.162l-2.313,2.266l1.734,2.734C80.716,373.354,167.49,420,256,420
			c88.51,0,175.284-46.646,221.067-118.838l1.733-2.734l-2.312-2.266C436.786,257.262,355.348,192,256,192z"/>
	</g>
</g>
</svg>
