<?xml version="1.0" encoding="utf-8"?>
<!-- Generator: Adobe Illustrator 16.0.0, SVG Export Plug-In . SVG Version: 6.00 Build 0)  -->
<!DOCTYPE svg PUBLIC "-//W3C//DTD SVG 1.1//EN" "http://www.w3.org/Graphics/SVG/1.1/DTD/svg11.dtd">
<svg version="1.1" id="Layer_1" xmlns="http://www.w3.org/2000/svg" xmlns:xlink="http://www.w3.org/1999/xlink" x="0px" y="0px"
	 width="512px" height="512px" viewBox="0 0 512 512" enable-background="new 0 0 512 512" xml:space="preserve">
<path display="none" fill="none" stroke="#4D4E54" stroke-width="12" stroke-miterlimit="10" d="M247.116,449.82
	c-0.972,0.016-1.964,0.016-2.936,0.016c-32.52,0-64.684-8.196-93.016-23.724c-5.42-2.97-9.524-7.142-12.124-12.072
	c-2.76-5.24-3.796-11.36-2.888-17.868c1.364-9.736,7.788-21.224,21.68-25.3c0.664-0.212,1.364-0.388,2.076-0.552
	c0.616-0.129,1.216-0.276,1.816-0.42c45.764-11.7,87.096-34.957,119.532-67.28c32.844-32.7,54.932-73.04,63.888-116.708
	c0.08-0.42,0.182-0.892,0.262-1.428c1.476-9.248,5.42-16.504,10.676-21.892c7.984-8.228,19.052-12.124,29.032-12.124
	c6.168,0,20.204,1.608,29.972,14.964c1.476,2.028,2.856,4.316,4.104,6.912c12.787,26.712,19.133,55.4,18.889,85.26
	C437.192,362.044,351.524,448.28,247.116,449.82z"/>
<path fill="none" stroke="#4D4E54" stroke-width="13" stroke-miterlimit="10" d="M451.408,156.944
	c-10.616-22.188-29.796-36.856-52.772-40.984c-0.044-0.008-0.088-0.016-0.132-0.024c-10.996-1.904-20.7-8.412-26.23-18.104
	c-1.846-3.228-3.54-6.452-5.036-9.708c-7.48-16.34-10.4-35.148-8.196-52.984c1.64-13.34-7.84-25.492-21.176-27.148
	c-13.34-1.656-25.492,7.84-27.148,21.176c-3.344,27.068,0.908,54.476,12.284,79.256c0.04,0.088,0.08,0.172,0.12,0.26
	c11.82,25.652-8.524,52.764-14.592,77.368c-5.961,24.152-17.018,46.964-31.721,66.992c-29.617,40.345-75.049,70.78-123.873,82.261
	c-0.276,0.063-0.568,0.127-0.908,0.211c-16.624,3.776-30.592,13.394-39.832,26.594c-4.964,7.092-11.3,13.06-18.724,17.512
	c-10.144,6.084-19.42,13.952-27.488,23.42c-18.404,21.584-28.496,49.836-27.716,77.504c0.372,13.192,11.18,23.66,24.308,23.66
	c0.244,0,0.472-0.016,0.696-0.016c13.436-0.372,24.032-11.572,23.66-25.024c-0.416-14.684,4.276-28.688,12.324-39.964
	c3.3-4.624,10.084-4.564,13.496-0.021c5.484,7.306,12.648,13.536,21.272,18.258c33.56,18.384,71.66,28.106,110.152,28.106
	c1.152,0,2.32,0,3.472-0.032c60.06-0.876,116.612-24.99,159.244-67.912c42.612-42.888,66.372-99.604,66.876-159.68
	C474.076,222.568,466.548,188.588,451.408,156.944z"/>
<path fill="#E7364D" d="M382.518,335.954c13.913-0.674,22.002,15.669,12.901,26.215c-36.438,42.228-89.954,69.426-149.319,70.302
	c-0.983,0.021-1.985,0.021-2.969,0.021c-28.666,0-57.056-6.132-82.952-17.837c-0.048-0.02-0.095-0.044-0.138-0.062
	c-9.025-4.176-9.186-17.005-0.398-21.654c1.025-0.541,1.847-0.926,2.355-1.068c49.76-14.246,95.209-39.168,132.803-72.778
	c4.508-4.029,10.944-5.208,16.525-2.883c1.116,0.465,2.223,0.967,3.32,1.508c7.842,3.873,14.665,9.614,22.623,13.258
	c13.838,6.322,29.716,5.724,44.92,4.992C382.295,335.965,382.409,335.959,382.518,335.954z"/>
</svg>
