<?xml version="1.0" encoding="utf-8"?>
<!-- Generator: Adobe Illustrator 16.0.0, SVG Export Plug-In . SVG Version: 6.00 Build 0)  -->
<!DOCTYPE svg PUBLIC "-//W3C//DTD SVG 1.1//EN" "http://www.w3.org/Graphics/SVG/1.1/DTD/svg11.dtd">
<svg version="1.1" id="Layer_1" xmlns="http://www.w3.org/2000/svg" xmlns:xlink="http://www.w3.org/1999/xlink" x="0px" y="0px"
	 width="512px" height="512px" viewBox="0 0 512 512" enable-background="new 0 0 512 512" xml:space="preserve">
<path fill="#E7364D" d="M386.622,414.692c0,4.908,3.949,8.856,8.856,8.856c4.908,0,8.857-3.948,8.857-8.856
	s-3.949-8.856-8.857-8.856C390.571,405.836,386.622,409.784,386.622,414.692z"/>
<polyline fill="#E7364D" points="209.595,362.146 230.5,490.5 277.167,490.5 298.5,361.955 212.5,361.955 "/>
<g>
	<path fill="#4C4E54" d="M255.827,283.215c-61.837-2.037-76.551-55.542-79.587-71.893l-0.12-0.645l-0.638-0.147
		c-5.764-1.336-10.954-4.632-14.613-9.282c-4.189-5.774-6.14-12.904-5.471-20.045l0.01-0.109l-0.014-0.107
		c-0.963-7.746,1.412-15.576,6.517-21.48c1.37-1.402,2.986-2.621,4.763-3.58l0.934-0.504l-0.559-0.902
		c-11.538-18.627-17.156-40.045-16.249-61.938c7.118-50.825,48.392-55.692,60.872-55.971l0.445-0.01l0.291-0.338
		c5.862-6.818,13.319-12.318,21.566-15.904c9.085-3.664,18.685-5.527,28.508-5.527c6.927,0,13.822,0.944,20.495,2.806
		c31.947,8.339,53.247,24.299,63.324,47.439c14.061,32.231,2.565,69.013-5.538,88.069l-0.428,1.005l1.039,0.337
		c2.677,0.871,5.1,2.262,7.198,4.134c5.737,5.827,8.52,14.207,7.397,22.372l-0.017,0.115l0.012,0.115
		c0.676,7.143-1.273,14.271-5.488,20.075c-3.639,4.617-8.831,7.914-14.596,9.251l-0.638,0.148l-0.12,0.644
		C332.085,227.69,317.383,281.18,255.827,283.215z M167.252,180.98c0.021,0.381,0.005,0.763-0.045,1.138
		c-0.401,4.233,0.688,8.46,3.065,11.94l0.037,0.055l0.044,0.049c2.994,3.345,7.285,5.377,11.771,5.576
		c2.704,0.322,4.892,2.582,5.129,5.368c0.233,2.626,6.416,64.242,68.555,66.277c61.949-2.039,68.077-63.667,68.308-66.289
		c0.244-2.78,2.432-5.036,5.203-5.362c4.413-0.191,8.704-2.225,11.698-5.572l0.044-0.049l0.037-0.053
		c2.387-3.497,3.477-7.744,3.068-11.959c-0.051-0.397-0.066-0.771-0.048-1.137c0.778-4.719-0.43-9.605-3.319-13.416l-0.087-0.115
		l-0.117-0.086c-1.988-1.465-4.346-2.24-6.816-2.24c-0.471,0-0.946,0.029-1.414,0.088c-0.396,0.068-0.747,0.1-1.094,0.1
		c-2.87,0-5.317-2.055-5.819-4.887c-0.231-1.309-0.013-2.672,0.617-3.841c1.06-2.006,25.67-49.384,9.35-86.842
		c-8.563-19.614-27.202-33.291-55.399-40.649c-5.685-1.608-11.581-2.427-17.509-2.427c-8.167,0-16.157,1.528-23.748,4.541
		c-7.537,3.247-14.121,8.399-19.067,14.91c-1.108,1.507-2.872,2.4-4.727,2.4c-0.174,0-0.349-0.008-0.524-0.023
		c-0.166-0.014-1.022-0.077-2.395-0.077c-10.114,0-43.574,3.274-49.484,45.41c-0.028,0.469-1.694,38.456,20.173,61.336
		c1.672,1.747,2.114,4.303,1.125,6.51c-0.866,2.15-2.887,3.516-5.163,3.516c-0.134,0-0.269-0.005-0.404-0.015l-0.447-0.04
		c-0.203-0.01-0.364-0.014-0.525-0.014c-2.556,0-5.012,0.939-6.915,2.645l-0.082,0.074l-0.064,0.09
		C167.58,171.667,166.484,176.427,167.252,180.98z"/>
	<path fill="#4C4E54" d="M331.251,165.275c-3.17-0.014-5.753-2.5-5.886-5.67c-0.084-1.818-2.424-44.453-34.304-48.559l-0.127-0.018
		l-0.127,0.017c-4.346,0.552-8.77,0.832-13.149,0.832c-0.002,0-0.003,0-0.005,0c-24.186,0-47.778-8.483-66.433-23.886l-0.608-0.502
		l-0.63,0.473c-9.023,6.787-29.583,27.264-25.635,70.709c0.043,1.52-0.529,3.023-1.614,4.174s-2.552,1.809-4.133,1.855l-0.177,0.002
		c-2.941,0-5.4-2.111-5.847-5.021c-5.667-62.375,34.282-83.984,35.985-84.874c0.842-0.439,1.789-0.671,2.737-0.671
		c1.533,0,2.987,0.583,4.094,1.642c17.232,15.608,39.499,24.194,62.718,24.194c3.868,0,7.777-0.244,11.618-0.725
		c0.389-0.063,0.75-0.092,1.108-0.092c0.199,0,0.397,0.009,0.596,0.026c34.484,3.589,45.021,40.771,45.771,59.929
		c0.126,3.254-2.418,6.01-5.671,6.145L331.251,165.275z"/>
	<path fill="#4C4E54" d="M61.654,497.168c-3.264,0-5.919-2.654-5.919-5.918v-77.133c0.102-50.086,40.934-90.859,91.022-90.891
		h13.284c3.264,0,5.919,2.656,5.919,5.92s-2.655,5.918-5.919,5.918h-13.284c-43.566,0.023-79.087,35.486-79.184,79.051v71.215
		h376.854v-71.213c-0.051-43.539-35.513-79.002-79.052-79.053h-14.24c-3.264,0-5.919-2.654-5.919-5.918s2.655-5.92,5.919-5.92
		h14.239c50.045,0.072,90.819,40.846,90.891,90.893v77.131c0,3.264-2.655,5.918-5.919,5.918H61.654z"/>
	<path fill="#4C4E54" d="M279.121,497.168c-3.263,0-5.918-2.654-5.918-5.918c0-0.297,0.022-0.594,0.065-0.883l28.002-185.309
		c0.434-2.871,2.946-5.035,5.844-5.035c0.297,0,0.598,0.023,0.894,0.068c0.275,0.041,0.551,0.104,0.82,0.184l48.321,14.564
		c1.514,0.457,2.759,1.477,3.507,2.869c0.747,1.393,0.907,2.992,0.451,4.506c-0.094,0.313-0.214,0.617-0.358,0.91l-19.508,39.143
		l11.589,13.008c1.719,1.943,1.963,4.844,0.591,7.047l-69.268,112.041c-1.086,1.756-2.967,2.805-5.03,2.805H279.121z
		 M290.028,458.727l1.839,0.676l49.191-79.51l-11.31-12.699c-1.62-1.818-1.967-4.398-0.883-6.578l18.157-36.441l-35.063-10.592
		L290.028,458.727z"/>
	<path fill="#4C4E54" d="M232.078,497.168c-2.066,0-3.948-1.049-5.034-2.805l-69.286-112.018c-1.374-2.209-1.131-5.107,0.59-7.051
		l11.587-13.006l-19.509-39.145c-1.443-2.924-0.237-6.48,2.689-7.924c0.293-0.145,0.6-0.266,0.911-0.359l48.321-14.564
		c0.555-0.166,1.127-0.25,1.702-0.25c2.591,0,4.922,1.734,5.667,4.219c0.08,0.266,0.141,0.541,0.183,0.814l28.015,185.309
		c0.23,1.561-0.162,3.121-1.104,4.391c-0.942,1.27-2.323,2.096-3.887,2.326C232.646,497.146,232.362,497.168,232.078,497.168
		L232.078,497.168z M164.181,324.15l18.151,36.445c1.085,2.178,0.742,4.76-0.876,6.576l-11.31,12.699l49.191,79.51l1.839-0.676
		l-21.932-145.123L164.181,324.15z"/>
	<path fill="#4C4E54" d="M256.118,368.166c-14.859-0.012-29.877-0.922-44.639-2.705c-3.279-0.301-5.681-3.188-5.384-6.438
		c0.281-3.066,2.813-5.381,5.888-5.381c0.181,0,0.363,0.01,0.547,0.025c0.108,0.01,0.216,0.023,0.324,0.039
		c14.142,1.74,28.508,2.619,42.728,2.619c14.219,0,28.584-0.879,42.697-2.615c0.202-0.021,0.418-0.033,0.631-0.033
		c3.024,0,5.55,2.271,5.875,5.283c0.345,3.186-1.869,6.039-5.041,6.494c-14.319,1.799-28.917,2.711-43.369,2.711H256.118z"/>
	<path fill="#4C4E54" d="M307.138,311.859c-1.854-0.008-3.625-0.902-4.731-2.396c-10.158-13.734-11.95-40.947-12.121-44.006
		c-0.188-3.258,2.308-6.063,5.564-6.252c0.084-0.004,0.18-0.006,0.275-0.006c3.133,0,5.758,2.451,5.975,5.58
		c0.426,7.348,3.021,28.457,9.818,37.646c1.938,2.625,1.379,6.338-1.246,8.275c-1.017,0.752-2.223,1.152-3.488,1.158H307.138z"/>
	<path fill="#4C4E54" d="M204.075,311.859c-1.585-0.008-3.068-0.629-4.181-1.752s-1.722-2.611-1.715-4.193
		c0.005-1.264,0.406-2.471,1.157-3.49c6.801-9.189,9.398-30.297,9.825-37.654c0.182-3.135,2.779-5.588,5.914-5.588
		c0.116,0,0.232,0.004,0.35,0.01c3.265,0.189,5.767,3,5.577,6.264c-0.068,1.221-1.785,29.977-12.123,44.01
		c-1.109,1.498-2.887,2.395-4.755,2.395H204.075z"/>
	<path fill="#4C4E54" d="M395.436,400.193c-3.219-0.008-5.811-2.529-5.903-5.748c-1.292-44.961-18.232-59.514-18.953-60.111
		c-2.546-2.021-3.009-5.744-1.047-8.311c1.12-1.465,2.823-2.307,4.672-2.307c1.275,0,2.491,0.406,3.517,1.172
		c0.899,0.682,22.152,17.357,23.649,69.213c0.093,3.258-2.483,5.988-5.741,6.084L395.436,400.193z"/>
	<path fill="#4C4E54" d="M395.479,441.043c-14.526,0-26.347-11.818-26.351-26.344c-0.002-7.039,2.737-13.656,7.713-18.635
		s11.593-7.721,18.631-7.723c14.533,0,26.354,11.816,26.357,26.344c-0.015,14.518-11.833,26.338-26.345,26.357H395.479z
		 M395.479,400.18c-7.998,0-14.509,6.506-14.513,14.504c-0.004,8.004,6.503,14.518,14.505,14.521
		c8.006,0,14.517-6.508,14.521-14.506c-0.009-7.998-6.515-14.508-14.504-14.52H395.479z"/>
	<path fill="#4C4E54" d="M111.253,400.193c-3.091,0-5.685-2.416-5.904-5.5c-3.722-52.416,25.001-69.143,26.226-69.83
		c0.89-0.502,1.894-0.766,2.905-0.766c2.136,0,4.114,1.154,5.162,3.012c0.777,1.377,0.972,2.975,0.547,4.498
		c-0.424,1.521-1.416,2.789-2.793,3.566c-0.974,0.574-23.385,14.361-20.246,58.686c0.111,1.578-0.398,3.104-1.434,4.297
		c-1.037,1.195-2.476,1.914-4.053,2.025l-0.422,0.012H111.253z"/>
	<path fill="#4C4E54" d="M97.242,455.592c-1.836,0-3.596-0.871-4.708-2.332c-3.314-4.352-5.723-9.236-7.158-14.518
		c-6.503-21.221,5.398-43.914,26.522-50.621c3.294-0.926,6.731-1.398,10.185-1.398c6.574,0,13.063,1.727,18.767,4.994
		c15.575,8.998,24.054,26.969,21.098,44.717c-0.477,2.867-2.929,4.949-5.83,4.949c-0.326,0-0.655-0.027-0.979-0.082
		c-1.56-0.258-2.925-1.109-3.845-2.396c-0.919-1.285-1.283-2.854-1.024-4.412c2.132-12.828-3.973-25.863-15.19-32.439
		c-3.959-2.285-8.462-3.492-13.027-3.492c-2.354,0-4.698,0.318-6.967,0.949c-14.923,4.988-23.117,21.184-18.314,36.113
		c1.028,3.783,2.775,7.322,5.181,10.473c1.973,2.596,1.465,6.316-1.133,8.291c-1.022,0.777-2.291,1.205-3.573,1.205H97.242z"/>
	<path fill="#4C4E54" d="M156.087,441.395c-0.185,0-0.374-0.002-0.563-0.029l-7.827-0.926c-1.57-0.186-2.974-0.973-3.953-2.215
		c-0.979-1.244-1.415-2.793-1.229-4.363c0.354-2.979,2.879-5.225,5.873-5.225c0.233,0,0.469,0.014,0.707,0.041l7.797,0.928
		c3.241,0.385,5.563,3.336,5.178,6.576c-0.342,2.881-2.722,5.076-5.591,5.213C156.48,441.395,156.125,441.395,156.087,441.395z"/>
	<path fill="#4C4E54" d="M97.279,455.654c-3.275,0-5.93-2.65-5.934-5.91c-0.003-2.469,1.551-4.703,3.867-5.559l8.302-3.066
		c0.672-0.25,1.369-0.377,2.075-0.377c2.459,0,4.69,1.549,5.55,3.854c0.554,1.482,0.497,3.092-0.16,4.531s-1.835,2.537-3.317,3.09
		l-8.3,3.072c-0.658,0.242-1.347,0.365-2.048,0.365H97.279z"/>
</g>
</svg>
