<?xml version="1.0" encoding="utf-8"?>
<!-- Generator: Adobe Illustrator 16.0.0, SVG Export Plug-In . SVG Version: 6.00 Build 0)  -->
<!DOCTYPE svg PUBLIC "-//W3C//DTD SVG 1.1//EN" "http://www.w3.org/Graphics/SVG/1.1/DTD/svg11.dtd">
<svg version="1.1" id="Layer_1" xmlns="http://www.w3.org/2000/svg" xmlns:xlink="http://www.w3.org/1999/xlink" x="0px" y="0px"
	 width="512px" height="512px" viewBox="0 0 512 512" enable-background="new 0 0 512 512" xml:space="preserve">
<path fill="#E7364D" d="M301.782,319.334c-0.826-1.652-1.651-2.479-3.305-3.305c-4.13-2.478-8.26,2.479-9.911,4.956
	c-1.651,2.479-3.304,7.435-5.781,9.086c-0.827,0.826-2.479,0-4.13,0c-4.13-0.826-9.086,0-12.39,2.478
	c-4.13,2.479-5.782,5.782-6.608,10.738c0,1.652-0.825,4.13-1.651,5.781c-1.653,2.479-3.304,2.479-5.783,1.652
	c-7.434-2.477-11.563-9.912-18.171-14.041c-0.826-0.826-13.216-9.912-12.39-9.912c2.478-4.13,5.782-8.26,8.26-12.39
	c3.304-5.783,4.956-11.563,7.434-18.173c0.826-3.303,0-6.606-3.304-7.433h-0.826c-2.478-0.827-5.782,0.826-6.608,3.303
	c-1.652,4.13-4.13,10.738-5.782,14.043c-2.478,4.956-6.608,10.737-10.738,14.867c-2.478,2.479-5.782,2.479-9.085,3.304
	c-4.956,0.826-9.086,0.826-14.042,0c-1.652-0.825-6.608-0.825-4.956-4.13c0.826-2.478,5.782-4.13,8.26-4.13
	c6.608-0.825,14.042,0,18.171-5.781c4.13-4.956,4.956-13.216,4.956-19.823c0-1.652-2.478-14.868-0.826-15.694
	c8.26-9.085,3.304-24.779,3.304-24.779c-1.652-5.781-4.956-11.563-9.086-16.52c-9.912-10.738-25.605-14.042-39.647-13.215
	c-19.823,0.825-37.995,14.866-44.603,33.864c-4.956,15.694,0,31.388,4.956,46.255c9.086,25.605,19.824,52.037,38.821,71.034
	c14.867,14.868,33.039,28.083,52.862,36.343c16.52,6.608,44.603,14.868,60.297,2.479c13.215-10.738,7.434-30.563,2.477-42.952
	c-0.825-2.477-1.651-4.956-2.477-8.259c-0.826-2.478-0.826-6.607-0.826-9.087c0.826-7.433,8.26-4.13,13.216-6.606
	c3.304-1.653,4.13-4.13,5.781-7.434c1.652-3.305,4.13-6.608,5.782-9.912C303.435,323.464,303.435,320.985,301.782,319.334z"/>
<path fill-rule="evenodd" clip-rule="evenodd" fill="none" stroke="#4C4E54" stroke-width="14" stroke-miterlimit="10" d="
	M142.062,23.604c0,0-79.98,98.877,24.744,110.73"/>
<path fill-rule="evenodd" clip-rule="evenodd" fill="none" stroke="#4C4E54" stroke-width="14" stroke-miterlimit="10" d="
	M162.56,135.256c0,0-124.001,67.126-124.001,187.048c0,119.922,90.842,148.051,106.719,154.586v18.242"/>
<path fill-rule="evenodd" clip-rule="evenodd" fill="none" stroke="#4C4E54" stroke-width="14" stroke-miterlimit="10" d="
	M433.974,45.966c0,0-57.27,144.386-51.913,194.404c3.271,30.559,37.693,84.189,51.913,111.435
	c16.733,32.062,39.2,87.653,37.824,139.63"/>
<line fill-rule="evenodd" clip-rule="evenodd" fill="none" stroke="#4C4E54" stroke-width="14" stroke-miterlimit="10" x1="439.806" y1="32.97" x2="446.721" y2="18.533"/>
<path fill-rule="evenodd" clip-rule="evenodd" fill="none" stroke="#4C4E54" stroke-width="14" stroke-miterlimit="10" d="
	M365.742,319.895c0,78.026-65.365,141.281-145.997,141.281S73.75,397.921,73.75,319.895c0-78.03,65.365-141.284,145.996-141.284
	S365.742,241.864,365.742,319.895z"/>
</svg>
